<?xml version="1.0" standalone="no"?>
<!DOCTYPE svg PUBLIC "-//W3C//DTD SVG 1.1//EN" "http://www.w3.org/Graphics/SVG/1.1/DTD/svg11.dtd" >
<svg xmlns="http://www.w3.org/2000/svg">
<metadata></metadata>
<defs>
<font id="mgopen_canonicabold_italic" horiz-adv-x="1067" >
<font-face units-per-em="2048" ascent="1638" descent="-410" />
<missing-glyph horiz-adv-x="540" />
<glyph horiz-adv-x="2048" />
<glyph horiz-adv-x="2048" />
<glyph unicode="&#xd;" horiz-adv-x="512" />
<glyph unicode=" "  horiz-adv-x="540" />
<glyph unicode="&#x09;" horiz-adv-x="540" />
<glyph unicode="&#xa0;" horiz-adv-x="540" />
<glyph unicode="!" horiz-adv-x="514" d="M25 96q0 84 60 147.5t146 63.5q133 0 134 -129q0 -84 -60.5 -146.5t-144.5 -62.5q-135 0 -135 127zM236 455q37 176 22 434q-14 227 0 295q16 82 68 139q59 66 137 66q127 0 127 -144q0 -24 -6 -51q-29 -133 -140 -369q-119 -254 -149 -370h-59z" />
<glyph unicode="&#x22;" horiz-adv-x="716" d="M258 829l16 451q4 59 39 104.5t90 45.5q78 0 78 -84q0 -29 -14 -66l-170 -451h-39zM590 829l16 451q4 59 31 100q33 51 88 52q88 0 88 -95q0 -27 -12 -57l-170 -451h-41z" />
<glyph unicode="#" horiz-adv-x="1515" d="M84 395l111 193h280l135 241h-293l113 195h293l229 406h207l-227 -406h248l229 406h211l-229 -406h272l-111 -195h-272l-137 -241h287l-113 -193h-283l-231 -403h-209l231 403h-250l-229 -403h-211l230 403h-281zM680 586h256l139 243h-260z" />
<glyph unicode="$" horiz-adv-x="1034" d="M51 84l68 317h43q29 -313 217 -338l106 502q-285 164 -284 348q0 33 8 66q31 147 164 254q127 100 278 115l29 131h102l-28 -129q174 -16 301 -101l-62 -286h-47q-12 129 -51 198q-49 88 -156 121l-90 -424q152 -88 215 -151q100 -100 101 -228q-1 -39 -9 -80 q-37 -166 -179 -282.5t-310 -116.5l-41 -197h-102l41 197q-207 0 -314 84zM426 1071q0 -80 131 -164l82 379q-178 -33 -209 -182q-4 -16 -4 -33zM481 63q197 39 234 209q4 23 4 45q0 109 -144 187z" />
<glyph unicode="%" horiz-adv-x="1650" d="M174 782q0 35 8 76q41 188 203 342q168 162 354 162q80 0 144.5 -59.5t148.5 -59.5q147 0 375 135h78l-1079 -1405h-105l956 1252q-131 -53 -241 -54q-49 0 -90 13q-20 -205 -176 -391q-170 -203 -367 -203q-209 0 -209 192zM397 762q0 -78 72 -78q119 0 242 164 q104 141 133 274q12 53 6 92q-39 2 -84 50q-102 -8 -229 -185q-111 -156 -136 -270q-4 -25 -4 -47zM862 174q0 199 178 391.5t375 192.5q190 0 191 -178q0 -195 -172 -394q-176 -207 -367 -206q-205 0 -205 194zM1085 156q0 -76 70 -76q119 0 242 158q106 135 135 266 q6 29 6 55q0 96 -84 96q-100 0 -227 -182q-111 -158 -135 -270q-6 -27 -7 -47z" />
<glyph unicode="&#x26;" horiz-adv-x="1581" d="M61 252q0 37 9 78q33 147 182 276q125 109 295 174q-49 125 -49 209q0 35 8 70q33 152 176 244q131 80 289 79q111 0 186 -43q90 -51 90 -145q0 -23 -6 -47q-43 -205 -356 -297l202 -424q63 70 127 137q106 121 113 150q10 45 -49 67q-41 16 -92 17l10 47h412l-11 -47 q-57 0 -94 -21q-29 -16 -76 -67q-102 -117 -309 -349q111 -186 199 -186q61 0 123 76l33 -27q-154 -250 -359 -250q-166 0 -262 174q-229 -174 -481 -174q-137 0 -223.5 76t-86.5 203zM369 434q0 -119 63 -205q68 -96 178 -96q107 0 213 78l-243 510q-178 -90 -203 -211 q-8 -37 -8 -76zM762 1155q0 -57 33 -129q31 -57 61 -115q151 53 174 162q8 33 8 68q0 174 -137 174q-61 0 -100 -48t-39 -112z" />
<glyph unicode="'" horiz-adv-x="512" d="M162 756q248 143 274 274q6 25 -20 31h-47q-115 0 -115 115q0 80 58.5 146.5t138.5 66.5q76 0 118 -52q37 -47 37 -125q0 -30 -6 -63q-51 -233 -418 -442z" />
<glyph unicode="(" horiz-adv-x="677" d="M82 281q0 104 22 215q59 279 246 518q190 248 457 377l-14 -68q-184 -88 -316 -334q-102 -190 -153 -424q-37 -176 -37 -352q0 -352 153 -494l-12 -57q-346 188 -346 619z" />
<glyph unicode=")" horiz-adv-x="677" d="M-72 -338l15 68q182 86 317 342q100 195 152 430q37 180 37 354q0 350 -154 479l10 56q172 -90 264 -256q86 -160 86 -365q0 -104 -22 -213q-59 -281 -246 -518q-190 -246 -459 -377z" />
<glyph unicode="*" horiz-adv-x="772" d="M170 786q0 74 78 113q51 25 169 40t144 26q-27 12 -84 34q-74 8 -147 17q-94 16 -94 80q0 51 45 95t94 44q45 0 110 -102q80 -129 95 -142q4 20 4 43q0 43 -17.5 117t-17.5 104q0 57 37 95.5t94 38.5q88 0 88 -78q0 -45 -66 -156q-84 -143 -92 -162q27 14 64 41 q8 6 123 119q82 82 129 82q39 0 66.5 -35t19.5 -74q-14 -68 -92 -100q-49 -20 -157 -33.5t-140 -25.5q23 -12 198 -45q123 -23 123 -88q0 -49 -41 -94.5t-88 -45.5q-63 0 -121 101q-70 127 -92 143q-2 -16 -2 -35q0 -41 16.5 -115.5t16.5 -109.5q0 -57 -35 -96t-94 -39 q-90 0 -90 73q0 47 67 156q78 129 90 164q-41 -23 -163 -141q-100 -98 -148 -99q-39 0 -64.5 26t-25.5 64z" />
<glyph unicode="+" horiz-adv-x="1175" d="M106 500l41 194h404l106 498h199l-106 -498h403l-41 -194h-403l-107 -500h-199l107 500h-404z" />
<glyph unicode="," horiz-adv-x="557" d="M-68 -330q248 141 277 273q4 23 -43 32q-74 14 -92 23q-51 27 -51 86q0 20 4 43q14 68 71.5 121t124.5 53q74 0 114 -52t40 -128q0 -31 -6 -60q-49 -231 -418 -442z" />
<glyph unicode="-" horiz-adv-x="585" d="M72 342l51 238h481l-51 -238h-481z" />
<glyph unicode="." horiz-adv-x="532" d="M25 100q0 20 6 41q31 150 180 150q150 0 149 -152q0 -72 -61 -118t-139 -46q-135 0 -135 125z" />
<glyph unicode="/" horiz-adv-x="600" d="M-39 -184l787 1573h108l-786 -1573h-109z" />
<glyph unicode="0" d="M203 432q0 121 24 242q55 254 193 452q176 254 403 254q174 0 258 -147q68 -121 68 -320q0 -123 -25 -243q-55 -256 -192 -451q-175 -246 -404 -246q-174 0 -256 144q-70 119 -69 315zM463 242q0 -205 82 -205q92 0 194 280q61 170 101 351q51 242 51 430q0 211 -84 211 q-92 0 -193 -285q-61 -172 -100 -350q-51 -246 -51 -432z" />
<glyph unicode="1" d="M145 0l9 45q90 0 135 14q74 20 110 86q20 35 25 54l180 845q4 23 4 41q0 72 -71 72q-57 0 -144 -41l10 47l541 215h35l-252 -1179q-4 -23 -4 -43q0 -72 65 -95q43 -16 144 -16l-8 -45h-779z" />
<glyph unicode="2" d="M82 0l12 59q145 125 291 250q199 178 305 320q143 188 144 334q0 84 -47.5 137t-135.5 53q-84 0 -158.5 -49t-119.5 -129h-47q59 172 209.5 285.5t322.5 113.5q131 0 206 -70.5t75 -189.5q0 -41 -11 -88q-31 -147 -153 -285q-70 -78 -250 -227l-295 -244h268 q137 0 191 23q66 31 149 143h41l-176 -436h-821z" />
<glyph unicode="3" d="M119 127q0 66 50 111t118 45q76 0 149.5 -102.5t149.5 -102.5q84 0 155 80q61 70 82 159q6 35 6 68q0 123 -98 215q-82 78 -215 119l8 37q141 53 193 88q92 63 114 172q6 25 7 49q0 68 -41 108.5t-115 40.5q-152 0 -287 -159l-33 20q94 137 233.5 221t287.5 84 q113 0 186 -53q84 -55 84 -156q0 -24 -6 -53q-33 -152 -213 -262q158 -111 158 -283q0 -39 -9 -79q-47 -217 -266 -373q-207 -147 -428 -148q-100 0 -174 33q-96 41 -96 121z" />
<glyph unicode="4" d="M147 303l48 219l804 856h158l-184 -858h121l-45 -217h-121l-64 -303h-286l63 303h-494zM281 520h405l123 570z" />
<glyph unicode="5" d="M123 117q0 57 43 106t100 49q76 0 173.5 -89t172.5 -89q98 0 173 83t75 183q0 156 -213 234q-152 55 -356 59l342 697h627l-140 -256h-536l-78 -168q223 0 371 -84q174 -98 174 -287q0 -45 -11 -94q-45 -217 -247 -357q-190 -131 -414 -131q-96 0 -166 29q-90 37 -90 115 z" />
<glyph unicode="6" d="M193 375q0 76 16 155q78 367 385 603q291 223 668 243l-13 -57q-207 -29 -379 -174q-162 -137 -254 -342q100 33 183 33q135 0 209 -86q68 -78 67 -207q0 -51 -12 -107q-41 -195 -182 -325q-150 -137 -342 -138q-174 0 -267 121q-80 106 -79 281zM467 205 q0 -176 100 -176q68 0 131 137q39 92 62 192q20 94 20 187q0 207 -112 207q-39 0 -93 -31q-43 -113 -77 -277q-31 -143 -31 -239z" />
<glyph unicode="7" d="M279 903l186 447h803l-764 -1377h-176l628 1108h-366q-98 0 -156 -45q-43 -33 -108 -133h-47z" />
<glyph unicode="8" d="M154 233q0 33 8 68q45 219 362 340q-197 150 -196 305q0 31 6 64q37 172 198 274q145 92 324 92q133 0 223 -57q104 -63 105 -180q0 -29 -6 -60q-41 -190 -322 -278q104 -92 143 -148q59 -86 60 -188q0 -43 -10 -90q-39 -186 -203 -301q-152 -104 -342 -105 q-145 0 -242 66q-109 72 -108 198zM393 217q0 -184 137 -184q98 0 164 94q60 84 60 186q0 154 -183 287q-127 -90 -170 -293q-8 -45 -8 -90zM616 1094q0 -150 193 -258q139 135 139 313q0 162 -131 162q-84 0 -142.5 -66.5t-58.5 -150.5z" />
<glyph unicode="9" d="M92 -27l10 50q213 39 382 177t253 343q-109 -35 -178 -35q-137 0 -213 86q-70 80 -70 211q0 53 13 108q41 195 187.5 328t338.5 133q174 0 266 -121q82 -109 82 -282q0 -78 -18 -158q-78 -365 -385 -598q-291 -223 -668 -242zM573 807q0 -213 113 -213q41 0 94 33 q49 152 79 290t30 228q0 170 -101 170q-72 0 -133 -131q-39 -84 -61 -187q-20 -94 -21 -190z" />
<glyph unicode=":" horiz-adv-x="514" d="M27 100q0 82 59 145.5t143 63.5q139 0 140 -129q0 -82 -60.5 -144.5t-144.5 -62.5q-137 0 -137 127zM160 737q0 82 63.5 146.5t145.5 64.5q135 0 135 -129q0 -80 -57.5 -144.5t-137.5 -64.5q-150 0 -149 127z" />
<glyph unicode=";" horiz-adv-x="530" d="M-66 -328q246 141 275 275q6 27 -23 30h-49q-113 0 -112 113q0 82 60 148.5t140 66.5q74 0 113 -51t39 -125q0 -32 -8 -63q-49 -236 -414 -443zM160 737q0 82 63.5 146.5t145.5 64.5q135 0 135 -129q0 -80 -57.5 -144.5t-137.5 -64.5q-150 0 -149 127z" />
<glyph unicode="&#x3c;" horiz-adv-x="1243" d="M106 500l41 192l1084 473l-45 -213l-783 -356l631 -356l-45 -215z" />
<glyph unicode="=" horiz-adv-x="1142" d="M61 289l41 192h985l-40 -192h-986zM152 711l41 190h985l-41 -190h-985z" />
<glyph unicode="&#x3e;" horiz-adv-x="1243" d="M6 25l45 215l785 356l-633 356l45 213l885 -473l-41 -192z" />
<glyph unicode="?" horiz-adv-x="897" d="M225 90q0 84 62.5 150.5t144.5 66.5q63 0 100 -35.5t37 -95.5q0 -18 -4 -39q-16 -74 -73.5 -121t-131.5 -47q-135 0 -135 121zM227 1055q0 18 6 39q29 141 168 223q121 72 271 72q141 0 235 -66q100 -72 101 -197q-1 -32 -7 -69q-45 -205 -307 -336q-109 -53 -121 -64 q-37 -33 -55 -120l-16 -72h-64l21 94q14 72 119.5 239t128.5 275q10 49 10 92q0 158 -125 158q-37 0 -78 -20q-47 -20 -55 -56q-6 -31 17.5 -79t23.5 -74q0 -61 -49.5 -107.5t-110.5 -46.5q-113 0 -113 115z" />
<glyph unicode="@" horiz-adv-x="1851" d="M88 330q0 86 21 180q84 395 419 655q330 256 727 256q283 0 449 -133q174 -139 174 -387q0 -78 -18 -166q-49 -231 -207 -413q-180 -207 -402 -207q-92 0 -138 52t-38 144q-137 -193 -319 -192q-244 0 -244 231q0 45 10 94q45 209 217 373q180 170 387 170 q170 0 181 -176l79 162h187l-297 -606q-37 -76 -37 -123q0 -66 55 -66q176 0 328 205q129 170 170 362q16 82 16 156q0 217 -145 336t-395 119q-352 0 -645 -254q-285 -248 -361 -602q-20 -90 -20 -174q0 -252 170 -393.5t458 -141.5q285 0 650 203l26 -53 q-360 -215 -708 -215q-332 0 -535 151q-215 164 -215 453zM702 293q0 -106 86 -107q139 0 287 213q123 178 158 336q8 43 8 78q0 113 -88 113q-135 0 -285 -219q-125 -186 -157 -340q-8 -39 -9 -74z" />
<glyph unicode="A" horiz-adv-x="1472" d="M0 0l12 55q100 0 201 162l719 1172h51l236 -1131q20 -98 34 -129q31 -63 101 -74l-13 -55h-639l13 55q172 0 184 64q4 14 -41 276h-442q-23 -37 -80 -137q-66 -117 -70 -135q-1 -5 -1 -10q0 -58 149 -58l-13 -55h-401zM463 477h383l-98 473z" />
<glyph unicode="B" horiz-adv-x="1316" d="M2 0l10 51q178 14 215 193l183 856q12 55 12 92q0 115 -138 115h-5l10 49h608q465 0 465 -254q0 -31 -6 -64q-49 -229 -393 -305q135 -23 223 -86q102 -78 102 -196q0 -31 -8 -64q-43 -199 -242 -303q-162 -84 -376 -84h-660zM535 162q0 -90 94 -90q233 0 299 303 q12 61 12 110q0 201 -254 201h-22q-18 -2 -25 -2l-96 -453q-8 -43 -8 -69zM653 750q166 0 250 63t119 227q8 39 8 76q0 174 -156 174q-72 0 -98 -30q-20 -23 -35 -99z" />
<glyph unicode="C" horiz-adv-x="1359" d="M125 502q0 84 18 174q66 309 299.5 511t540.5 202q68 0 183.5 -45.5t174.5 -45.5q84 0 119 91h53l-100 -471h-51q-20 166 -111 276q-104 125 -264 125q-193 0 -340 -221q-113 -170 -160 -389q-24 -109 -24 -217v-9q0 -178 61 -286q74 -129 228 -129q127 0 270 71 q137 68 238 176l43 -51q-115 -139 -291 -219q-166 -76 -336 -76q-258 0 -404.5 147.5t-146.5 385.5z" />
<glyph unicode="D" horiz-adv-x="1521" d="M14 0l11 51q166 12 198 172l191 891q8 45 8 78q0 115 -134 115h-9l10 49h614q281 0 440 -129q168 -133 168 -377q0 -82 -20 -174q-70 -332 -301 -508q-221 -168 -557 -168h-619zM532 150q0 -78 105 -78q377 0 506 598q28 132 28 248v8q0 362 -272 362q-129 0 -158 -129 l-200 -944q-8 -39 -9 -65z" />
<glyph unicode="E" horiz-adv-x="1366" d="M0 0l10 51q102 0 153.5 40t72.5 138l184 871q12 53 12 88q0 119 -143 119l10 49h1137l-86 -404h-45q2 27 2 49q0 158 -99 224q-86 57 -270 57q-98 0 -127 -14q-43 -23 -61 -113l-91 -426q315 0 377 297h47l-143 -676h-51q12 55 12 103q0 209 -256 209l-94 -443 q-8 -33 -8 -57q0 -80 82 -80q217 0 366 72q168 82 285 272h55l-172 -426h-1159z" />
<glyph unicode="F" horiz-adv-x="1259" d="M4 0l10 51q111 16 154 55t65 144l185 866q8 45 8 74q0 57 -34 81.5t-113 35.5l10 49h1128l-86 -406h-47q1 13 1 26q0 182 -107 251q-90 57 -312 57q-53 0 -77.5 -20.5t-36.5 -77.5l-97 -453q301 0 365 299h55l-143 -680h-51q10 57 10 103q0 211 -250 211l-90 -426 q-8 -39 -8 -70q0 -68 49 -94q37 -18 137 -25l-10 -51h-715z" />
<glyph unicode="G" horiz-adv-x="1480" d="M123 502q0 82 20 170q63 303 298 510t538 207q82 0 199.5 -43t158.5 -43q70 0 121 86h58l-101 -474h-53q-18 162 -109 275q-104 129 -258 129q-197 0 -344 -225q-113 -172 -159 -394q-27 -119 -27 -239q0 -182 59 -291q72 -135 221 -135q199 0 238 176l35 170q8 33 8 57 q0 61 -49 82q-31 14 -125 23l10 47h668l-10 -47h-10q-86 0 -124 -34q-40 -36 -61 -128l-63 -299q-274 -113 -545 -113q-270 0 -432 143.5t-162 389.5z" />
<glyph unicode="H" horiz-adv-x="1636" d="M0 0l10 51q98 0 146.5 44t70.5 143l189 890q10 49 10 80q0 55 -33 77t-112 22l10 49h672l-11 -49q-104 0 -150 -37t-69 -142l-82 -383h475l82 383q10 47 11 78q0 55 -34 78t-116 23l10 49h674l-10 -49q-98 0 -146.5 -41t-68.5 -138l-189 -890q-10 -41 -10 -72 q0 -115 146 -115l-11 -51h-673l10 51q111 0 152.5 38t66.5 149l88 419h-475l-88 -419q-10 -47 -10 -78q0 -109 149 -109l-10 -51h-674z" />
<glyph unicode="I" horiz-adv-x="864" d="M0 0l10 51q100 0 152.5 38t73.5 136l196 926q8 33 8 57q0 57 -43 80q-35 18 -118 19l10 49h690l-10 -49q-106 0 -146 -25q-49 -31 -71 -131l-195 -922q-8 -39 -8 -67q0 -111 156 -111l-11 -51h-694z" />
<glyph unicode="J" horiz-adv-x="1103" d="M8 18q0 80 51.5 142.5t130.5 62.5q111 0 111 -110q0 -16 -4 -35q-6 -27 -38 -71t-38 -68q-4 -25 22.5 -40.5t53.5 -15.5q125 0 162 178l219 1029q12 57 12 96q0 121 -170 121l10 49h701l-10 -49q-119 0 -162 -54q-33 -37 -60 -163l-176 -826q-43 -201 -178 -327 q-143 -133 -340 -134q-117 0 -201 54q-96 61 -96 161z" />
<glyph unicode="K" horiz-adv-x="1622" d="M0 0l10 51q100 0 148.5 43t70.5 144l189 890q10 43 10 74q0 104 -145 105l10 49h670l-11 -49q-106 0 -150 -36t-67 -143l-92 -434l500 418q104 86 114 131q1 4 1 8q0 55 -162 56l10 49h580l-11 -49q-186 0 -467 -234l-268 -225l422 -711q51 -86 147 -86l-10 -51h-711 l11 51q156 0 166 49q1 5 1 10q0 32 -30 85l-254 442l-61 -49l-74 -350q-10 -47 -10 -80q0 -106 147 -107l-10 -51h-674z" />
<glyph unicode="L" horiz-adv-x="1294" d="M0 0l10 51q100 8 147.5 48t69.5 139l189 890q10 49 10 80q0 98 -145 99l10 49h694l-10 -49q-121 0 -166 -31q-51 -35 -76 -148l-186 -882q-14 -63 -15 -94q0 -51 50 -66q23 -6 94 -6q201 0 344 98q131 88 250 283h53l-174 -461h-1149z" />
<glyph unicode="M" horiz-adv-x="1966" d="M0 0l10 51q180 0 219 185l193 901q8 35 8 61q0 109 -149 109l10 49h506l192 -932l592 932h504l-10 -49q-96 0 -142.5 -43t-66.5 -140l-187 -870q-18 -86 -18 -117q0 -86 141 -86l-10 -51h-659l10 51q111 0 155 43q39 39 64 152l199 942l-748 -1188h-53l-246 1157 l-197 -921q-8 -41 -8 -72q0 -113 162 -113l-10 -51h-461z" />
<glyph unicode="N" horiz-adv-x="1538" d="M0 0l10 51q98 0 145.5 42t67.5 140l197 920q-45 90 -51 98q-37 55 -90 56l10 49h411l517 -854l131 620q12 49 12 80q0 102 -152 103l13 51h444l-12 -51q-104 0 -147.5 -38t-67.5 -145l-244 -1153h-53l-658 1073l-172 -811q-10 -49 -10 -81q0 -55 34 -77t118 -22l-11 -51 h-442z" />
<glyph unicode="O" horiz-adv-x="1572" d="M125 500q0 84 18 174q66 309 302.5 512t543.5 203q260 0 410.5 -147.5t150.5 -389.5q0 -84 -18 -172q-68 -311 -305.5 -511t-546.5 -200q-260 0 -407.5 146.5t-147.5 384.5zM457 442q0 -409 254 -409q186 0 327 231q106 172 154 389q27 125 27 254q0 412 -258 412 q-184 0 -328 -234q-104 -172 -150 -389q-26 -121 -26 -245v-9z" />
<glyph unicode="P" horiz-adv-x="1339" d="M0 0l10 51q98 0 146.5 44t70.5 143l189 890q10 49 10 80q0 99 -142 99h-3l10 49h588q229 0 344 -43q170 -63 170 -232q-1 -43 -11 -90q-41 -190 -223 -293q-154 -86 -354 -86h-180l-80 -374q-10 -47 -10 -78q0 -109 144 -109h5l-10 -51h-674zM639 684h47q152 0 219 41 q82 52 113 197q24 116 24 181v5q0 176 -163 176q-63 0 -92 -19.5t-42 -78.5z" />
<glyph unicode="Q" horiz-adv-x="1482" d="M154 459q0 342 245 633q256 303 594 303q229 0 357.5 -132.5t128.5 -363.5q0 -289 -183.5 -545t-457.5 -352q-76 -18 -146 -20q-51 0 -76 -15q-35 -20 -116 -104q119 0 299 -47t264 -47q190 0 317 168l43 -46q-205 -309 -540 -309q-82 0 -240 47t-242 47q-72 0 -211 -45 q-25 0 -28 29q6 25 57 72l281 250q-346 125 -346 477zM446 297q0 -102 48 -174q53 -82 147 -82q254 0 414 385q121 293 135 604q1 14 1 27q0 101 -40 172q-55 96 -168 96q-182 0 -311 -217q-76 -129 -148 -377q-78 -272 -78 -434z" />
<glyph unicode="R" horiz-adv-x="1531" d="M0 0l10 51h4q173 0 213 187l189 890q8 41 8 70q0 53 -35 78q-29 18 -108 31l10 49h596q526 0 526 -291q0 -35 -8 -74q-27 -125 -139 -211q-82 -59 -234 -116l238 -514q41 -90 125 -99l-11 -51h-426l-272 631h-59l-82 -393q-10 -47 -10 -78q0 -109 149 -109l-10 -51h-674z M641 696q236 0 320 78q75 72 126 316q6 23 7 45q0 149 -200 149h-3q-82 0 -108.5 -26.5t-45.5 -110.5z" />
<glyph unicode="S" horiz-adv-x="1081" d="M-4 -20l106 501h58v-19q0 -161 63 -269q80 -139 240 -140q100 0 187 61.5t108 159.5q6 23 6 41q0 102 -141 187q-131 74 -261 147q-141 104 -141 260q0 43 10 92q37 172 182.5 286t317.5 114q55 0 149.5 -35t147.5 -35q68 0 92 68h58l-93 -438h-51v14q0 145 -78 244 q-87 110 -234 110h-3q-90 0 -161 -49t-89 -137q-4 -20 -4 -39q0 -100 147 -186q137 -78 275 -156q147 -109 147 -266q0 -43 -10 -90q-43 -201 -223 -318q-162 -104 -371 -104q-51 0 -141 29.5t-139 29.5q-66 0 -101 -63h-53z" />
<glyph unicode="T" horiz-adv-x="1316" d="M201 946l88 410h1192l-88 -412h-52q4 37 5 70q0 276 -320 276l-223 -1052q-10 -43 -10 -74q0 -113 161 -113l-10 -51h-704l10 51q104 0 157.5 41t75.5 146l224 1052q-168 0 -287 -88q-125 -90 -166 -256h-53z" />
<glyph unicode="U" horiz-adv-x="1523" d="M254 305q0 70 18 156l142 667q10 47 10 78q0 101 -142 101h-3l10 49h672l-11 -49h-10q-94 0 -139 -37q-47 -39 -70 -142l-135 -641q-27 -119 -27 -196q0 -227 224 -228q344 0 430 412l139 649q10 49 10 82q0 59 -37 80t-127 21l11 49h434l-11 -49h-7q-84 0 -125 -44 q-42 -46 -60 -139l-125 -585q-61 -287 -201 -422q-156 -152 -436 -152q-434 0 -434 340z" />
<glyph unicode="V" horiz-adv-x="1478" d="M276 1305l13 51h665l-12 -51q-172 0 -188 -80q-3 -15 -3 -34q0 -28 7 -65l139 -700l418 698q41 70 41 109q0 72 -150 72l13 51h423l-12 -51q-72 0 -125 -52q-37 -33 -86 -114l-706 -1174h-51l-250 1168q-39 172 -136 172z" />
<glyph unicode="W" horiz-adv-x="2039" d="M276 1305l13 51h581l-12 -51q-121 0 -139 -91q-4 -20 -4 -46t4 -60l84 -653l360 596q-16 156 -22 174q-31 80 -140 80l13 51h626l-12 -51q-135 0 -153 -80q-3 -16 -3 -35.5t3 -42.5l86 -653l327 606q49 92 49 135q0 70 -118 70l12 51h360l-12 -51q-92 -10 -182 -177 l-633 -1159h-53l-131 949l-578 -949h-55l-158 1200q-16 135 -113 136z" />
<glyph unicode="X" horiz-adv-x="1486" d="M0 0l10 51q133 0 269 146l397 424l-234 528q-33 76 -55 104q-41 51 -102 52l12 51h686l-12 -51q-162 0 -176 -64q-1 -4 -1 -10q0 -47 60 -184q43 -92 86 -185l223 250q68 74 76 119q2 8 2 15q0 59 -123 59l12 51h490l-12 -51q-168 0 -342 -193l-293 -326l262 -616 q49 -119 125 -119l-10 -51h-670l10 51q154 0 168 66q2 8 2 18q0 39 -26 101l-125 307l-279 -303q-53 -57 -63 -101q-2 -9 -2 -18q0 -70 133 -70l-11 -51h-487z" />
<glyph unicode="Y" horiz-adv-x="1472" d="M276 1305l13 51h655l-12 -51q-154 0 -168 -66q-2 -9 -2 -19q0 -24 10 -57l150 -493l340 417q70 86 69 142q0 76 -137 76l12 51h430l-12 -51q-84 0 -199 -142l-460 -561l-76 -364q-10 -47 -10 -80q0 -106 145 -107l-10 -51h-674l10 51q100 0 147.5 43t69.5 144l62 294 l-209 617q-47 143 -144 156z" />
<glyph unicode="Z" horiz-adv-x="1337" d="M0 0l6 31l1026 1247h-184q-188 0 -310 -78t-216 -258h-52l127 414h1039l-9 -37l-1015 -1233h258q205 0 348 102q129 96 237 299h52l-156 -487h-1151z" />
<glyph unicode="[" horiz-adv-x="614" d="M-63 -297l352 1653h471l-15 -66h-137q-66 0 -94 -20q-35 -23 -47 -86l-277 -1297q-4 -20 -4 -37q0 -84 125 -83q18 0 56.5 2t54.5 2l-14 -68h-471z" />
<glyph unicode="\" horiz-adv-x="667" d="M295 1389h147l123 -1573h-151z" />
<glyph unicode="]" horiz-adv-x="528" d="M-295 -297l14 70q14 0 49 -2t56 -2q150 0 172 106l276 1301q4 20 4 36q0 82 -122 82q-18 0 -56.5 -2t-54.5 -2l14 66h471l-352 -1653h-471z" />
<glyph unicode="^" horiz-adv-x="598" d="M213 1004l287 288h147l164 -288h-84l-180 159l-250 -159h-84z" />
<glyph unicode="_" horiz-adv-x="999" d="M-100 -391l43 203h999l-43 -203h-999z" />
<glyph unicode="`" horiz-adv-x="595" d="M369 1194q0 45 31.5 77t76.5 32q37 0 58 -17q27 -23 75 -104l101 -176h-90l-175 98q-78 43 -77 90z" />
<glyph unicode="a" horiz-adv-x="1124" d="M0 221q0 225 158 459q172 256 387 256q119 0 153 -137l35 112h217l-170 -587q-37 -127 -37 -160q0 -41 27 -41q72 0 141 139l45 -29q-147 -260 -311 -260q-49 0 -86 33t-37 82q0 61 21 139q-139 -252 -328 -252q-96 0 -155.5 74t-59.5 172zM248 246q0 -121 88 -121 q133 0 227 233q70 172 86 353q1 17 1 31q0 106 -75 106q-115 0 -227 -248q-100 -219 -100 -354z" />
<glyph unicode="b" horiz-adv-x="1026" d="M0 92q0 27 10 64l269 966q27 96 26 117q0 45 -45 57q-20 6 -82 7v53q117 8 424 57l-180 -645q127 168 268 168q102 0 159.5 -75t57.5 -179q0 -270 -184 -485q-193 -223 -459 -224q-80 0 -158 25q-106 33 -106 94zM311 45q152 0 262 246q91 205 91 383q0 121 -95 121 q-106 0 -170 -144q-12 -27 -73 -235q-25 -78 -52 -156q-30 -101 -30 -158t67 -57z" />
<glyph unicode="c" horiz-adv-x="923" d="M0 291q0 233 164 432q174 211 401 211q90 0 160 -49q76 -56 76 -142q0 -57 -37 -94t-94 -37q-41 0 -77 23.5t-36 64.5q0 25 18.5 68t18.5 66q0 12 -16.5 23t-30.5 11q-121 0 -215 -229q-80 -193 -80 -338q0 -76 29 -129q35 -70 102 -70q139 0 260 189l53 -43 q-162 -274 -399 -275q-133 0 -215 91.5t-82 226.5z" />
<glyph unicode="d" horiz-adv-x="1112" d="M0 242q0 231 152 450q166 242 387 242q80 0 149 -47q92 319 92 334q0 84 -116 84v53q161 14 413 59l-315 -1171q-25 -92 -25 -105q0 -18 23 -18q41 0 82 53q27 43 55 88l45 -33q-94 -137 -123 -168q-84 -90 -176 -90q-53 0 -88 35t-35 88q0 55 19 131 q-141 -254 -328 -254q-102 0 -162 86q-49 74 -49 183zM248 246q0 -119 74 -119q147 0 249 252q84 205 84 381q0 35 -21.5 64.5t-53.5 29.5q-113 0 -230 -252q-102 -223 -102 -356z" />
<glyph unicode="e" horiz-adv-x="921" d="M0 291q0 227 164 428q172 211 395 211q88 0 154.5 -49.5t66.5 -135.5q0 -270 -514 -370q-12 -45 -12 -113q0 -63 36 -109.5t97 -46.5q115 0 229 183l58 -39q-133 -276 -367 -277q-137 0 -222 89.5t-85 228.5zM281 442q131 27 225 117q104 100 104 225q0 80 -63 80 q-96 0 -180 -168q-55 -113 -86 -254z" />
<glyph unicode="f" horiz-adv-x="780" d="M-387 -246q0 37 29.5 74t66.5 37q39 0 70 -27.5t31 -64.5q0 -23 -33 -80q2 -37 35 -37q86 0 170 266q59 190 118 527q33 190 66 382h-141l20 82h141q141 504 439 504q86 0 145 -37q68 -45 68 -127q0 -45 -30 -73.5t-75 -28.5q-41 0 -70.5 26.5t-29.5 67.5q0 16 16.5 47 t18.5 49q-12 12 -37 13q-86 0 -148 -183q-14 -45 -63 -258h174l-10 -82h-176q-23 -102 -66 -309q-86 -428 -145 -575q-143 -354 -400 -355q-72 0 -125 46q-59 47 -59 116z" />
<glyph unicode="g" horiz-adv-x="933" d="M-147 -186q0 82 90 139q39 25 159 72q-102 61 -102 129q0 92 178 192q-145 86 -145 205q0 158 129 270.5t289 112.5q168 0 290 -98h177l-11 -84h-112q6 -27 6 -72q0 -156 -133 -264q-125 -100 -285 -101q-76 0 -127 7q-53 -29 -53 -70q0 -10 6 -16q49 -51 186 -86 q166 -43 211 -70q100 -57 101 -176q0 -160 -166 -244q-133 -68 -310 -68q-137 0 -241 43q-137 59 -137 179zM104 -301q66 -39 152 -39t154 33q84 43 84 121t-119 129q-37 16 -189 57q-159 -76 -159 -175q0 -81 77 -126zM264 494q0 -45 25.5 -80t68.5 -35q102 0 160 137 q45 108 45 227q0 125 -86 125q-92 0 -158 -145q-55 -121 -55 -229z" />
<glyph unicode="h" horiz-adv-x="1193" d="M0 0l303 1122q25 90 25 117q0 45 -45 57q-20 6 -82 7v53q158 10 422 57l-220 -819q98 154 170 223q119 117 246 117q70 0 111 -41t41 -111q0 -86 -66 -286q-47 -133 -94 -267q-14 -43 -14 -57q0 -41 34 -41q51 0 146 166l45 -29q-143 -293 -332 -293q-66 0 -102 48 q-35 41 -35 108q0 86 63 275q47 131 95 264q16 47 16 63q0 53 -39 53q-238 0 -442 -786h-246z" />
<glyph unicode="i" horiz-adv-x="634" d="M0 123q0 39 27 133l106 379q27 94 27 131q0 55 -103 55l-2 51q197 18 398 62l-185 -680q-16 -61 -16 -74q0 -51 35 -51q59 0 139 139l41 -26q-139 -266 -330 -267q-63 0 -100 41t-37 107zM260 1253q0 55 39 95.5t94 40.5q57 0 97 -39.5t40 -96.5q0 -53 -39.5 -94 t-93.5 -41q-57 0 -97 39t-40 96z" />
<glyph unicode="j" horiz-adv-x="571" d="M-381 -248q0 113 100 113q41 0 73 -25.5t32 -66.5q0 -14 -18.5 -50t-18.5 -47q0 -18 39 -18q66 0 102 84q10 23 41 141l193 752q29 113 28 131q0 55 -95 55h-7l-2 51q200 19 395 62l-215 -825q-135 -516 -434 -517q-80 0 -141 39q-72 45 -72 121zM291 1253q0 55 39 95.5 t92 40.5q57 0 98 -39.5t41 -96.5q0 -55 -40 -95t-95 -40q-57 0 -96 39t-39 96z" />
<glyph unicode="k" horiz-adv-x="1089" d="M0 0l303 1122q25 90 25 117q0 45 -45 57q-20 6 -82 7v53q158 10 422 57l-246 -917q319 236 319 303q0 49 -94 59v53h414v-53q-102 -14 -211 -96q-88 -78 -178 -154q12 -147 39 -270q47 -207 114 -207q35 0 68 47q2 2 43 76l45 -18q-115 -258 -266 -259q-137 0 -197 170 q-16 49 -55 285l-70 -53l-102 -379h-246z" />
<glyph unicode="l" horiz-adv-x="630" d="M0 125q0 41 25 131l235 864q27 98 27 129q0 55 -103 56l-2 49q134 16 396 63l-314 -1163q-16 -61 -16 -74q0 -51 31 -51q57 0 143 139l43 -26q-164 -266 -318 -267q-68 0 -107.5 41t-39.5 109z" />
<glyph unicode="m" horiz-adv-x="1685" d="M0 0l170 635q27 100 27 131q0 55 -96 55h-7l-2 51q96 10 404 62l-105 -354q209 354 420 354q72 0 112 -43t40 -115q0 -43 -21 -123q184 281 371 281q70 0 111.5 -41t41.5 -111q0 -86 -65 -286q-47 -133 -94 -267q-12 -37 -13 -45q0 -53 33 -53q43 0 133 141l47 -30 q-92 -133 -131 -174q-90 -92 -188 -93q-135 0 -135 152q0 84 61 276q47 133 94 267q14 43 15 63q0 53 -39 53q-33 0 -62 -18q-139 -92 -245 -350q-12 -25 -144 -418h-231l200 670q20 68 21 75q0 41 -41 41q-150 0 -291 -325q-86 -195 -151 -461h-240z" />
<glyph unicode="n" horiz-adv-x="1167" d="M0 0l170 635q27 100 27 131q0 55 -96 55h-7l-2 51q96 10 404 62l-105 -354q209 354 420 354q72 0 112 -44t40 -116t-70 -282q-45 -131 -90 -263q-14 -43 -15 -59q0 -39 37 -39q33 0 133 141l43 -30q-80 -123 -129 -174q-90 -92 -188 -93q-137 0 -137 156q0 76 63 272 q47 133 92 267q20 61 21 75q0 41 -41 41q-150 0 -291 -325q-86 -195 -151 -461h-240z" />
<glyph unicode="o" horiz-adv-x="1009" d="M0 299q0 221 164 424q174 213 391 213q141 0 236.5 -89.5t95.5 -228.5q0 -233 -160 -434q-172 -211 -399 -211q-143 0 -235.5 91.5t-92.5 234.5zM238 182q0 -141 100 -141q129 0 229 281q82 231 82 395q0 151 -87 151h-1q-115 0 -184 -131q-27 -53 -80 -233 q-59 -203 -59 -322z" />
<glyph unicode="p" horiz-adv-x="1060" d="M-201 -356q76 12 109 55q23 33 45 117l225 870q14 55 15 76q0 37 -37 51q-12 4 -70 10v51q176 23 383 60l-57 -205q82 98 133 139q84 66 176 66q104 0 162 -82q51 -73 51 -182q0 -238 -156 -457q-172 -240 -399 -240q-82 0 -137 43q-23 -72 -43 -143q-27 -90 -27 -145 q0 -72 123 -84v-52h-496v52zM272 106q0 -61 62 -61q152 0 258 244q88 203 88 379q0 120 -77 120h-1q-106 0 -176 -133q-37 -70 -78 -227q-25 -80 -47 -160q-29 -96 -29 -162z" />
<glyph unicode="q" horiz-adv-x="1015" d="M0 246q0 211 154 438q170 250 370 250q86 0 162 -70l16 54h236l-293 -1096q-18 -70 -18 -98q0 -80 117 -80h6v-52h-498v52q68 0 102 39q29 31 47 102l107 401q-137 -213 -299 -213q-106 0 -162 86q-47 74 -47 187zM246 246q0 -121 88 -121q133 0 233 258q86 213 86 375 q0 96 -82 96q-106 0 -221 -254q-104 -227 -104 -354z" />
<glyph unicode="r" horiz-adv-x="874" d="M0 0l170 635q27 100 27 131q0 55 -96 55h-7l-2 51q96 10 404 62l-111 -365q78 156 127 226q100 139 195 139q116 0 116 -129q0 -147 -123 -148q-43 0 -79 31q-18 39 -41 39q-92 0 -215 -315q-90 -238 -125 -412h-240z" />
<glyph unicode="s" horiz-adv-x="851" d="M0 -12l55 340l54 -11q31 -276 206 -276q51 0 85 30.5t34 80.5q0 76 -72 170q-66 82 -133 161q-72 102 -71 197q0 111 79.5 181.5t192.5 70.5q39 0 110.5 -21.5t110.5 -21.5q37 0 60 35h53l-45 -306l-51 5q-51 245 -190 245h-1q-45 0 -77.5 -27.5t-32.5 -72.5 q0 -76 73 -168q66 -80 133 -160q74 -98 74 -192q0 -113 -84 -194t-198 -81q-41 0 -120 25t-120 25t-70 -41z" />
<glyph unicode="t" horiz-adv-x="686" d="M0 100q0 53 27 150l157 573h-102v70q215 82 371 303h79l-83 -291h161l-24 -82h-160l-147 -514q-33 -113 -33 -137q0 -49 37 -49q45 0 151 162l43 -33q-168 -279 -338 -279q-55 0 -97 37t-42 90z" />
<glyph unicode="u" horiz-adv-x="1140" d="M0 123q0 76 47 254q39 129 76 258q29 102 29 131q0 55 -98 55h-7l-2 51q100 10 406 62l-197 -698q-12 -41 -12 -70q0 -45 30 -45q160 0 301 319q84 193 148 465h244l-185 -676q-14 -53 -14 -61q0 -37 35 -37q31 0 76 57q29 41 57 84l43 -30q-78 -123 -131 -176 q-90 -90 -191 -91q-55 0 -94 45.5t-39 102.5q0 29 37 184q-201 -334 -409 -334q-68 0 -109 41t-41 109z" />
<glyph unicode="v" horiz-adv-x="856" d="M0 872q74 18 147 35q90 23 150 23q6 0 12 -8q64 -82 64 -625v-33q113 121 153 174q94 125 95 203q0 31 -45.5 82t-45.5 88q0 45 30 83t75 38q55 0 95 -40t40 -97q0 -170 -221 -441q-66 -82 -356 -381h-46q0 207 -10 523q-6 158 -14 198q-27 127 -121 127z" />
<glyph unicode="w" horiz-adv-x="1280" d="M0 872q14 2 147 33q102 25 138 25q72 0 94 -533l315 537h49l62 -674q74 74 145 174q94 133 94 197q0 55 -46 93t-46 95q0 49 34 84t83 35q55 0 88 -43t33 -100q0 -172 -205 -439q-43 -55 -334 -381l-53 -2l-53 564l-338 -562l-60 -2q0 203 -10 523q-4 158 -14 198 q-29 127 -121 127z" />
<glyph unicode="x" horiz-adv-x="1179" d="M0 78q0 51 35 92t84 41q16 0 119 -41q66 0 114 84q37 70 72 139l-64 328q-8 47 -16 67q-16 39 -43 50q-16 6 -113 6v47q29 4 156 27q94 18 156 18q47 0 80 -117q6 -29 28 -157q113 162 129 180q88 100 183 100q51 0 89 -35t38 -86q0 -35 -27 -72.5t-62 -37.5 q-27 0 -73.5 20.5t-73.5 20.5q-55 0 -109 -76q-37 -59 -73 -121l59 -293q27 -127 86 -127q39 0 78 41q29 37 57 74l37 -29q-84 -119 -123 -158q-84 -88 -170 -88q-162 0 -209 310q-92 -162 -118 -195q-88 -117 -181 -117q-51 0 -94 27q-51 29 -51 78z" />
<glyph unicode="y" horiz-adv-x="864" d="M-215 -287q0 47 34 83t81 36q39 0 98 -37t84 -37q55 0 121.5 86t66.5 144q0 104 -51 364q-45 236 -84 367q-20 68 -43 88q-26 24 -81 24h-13v52q41 2 137 26q88 23 137 23h13q6 -2 10 -2q47 -27 106 -324q33 -188 66 -377q174 317 174 408q0 33 -57.5 85t-57.5 91 q0 51 36 88t87 37q49 0 88 -33t39 -80q0 -158 -141 -456q-143 -307 -328 -527q-209 -250 -370 -250q-63 0 -105 29q-47 33 -47 92z" />
<glyph unicode="z" horiz-adv-x="966" d="M0 -18q0 14 45 69l541 664h-289q-57 0 -86 -33q-18 -18 -45 -84h-49l84 311h643l-574 -688q74 -31 179 -180q96 -137 124 -137q39 0 39 28q0 18 -18.5 50t-18.5 49q0 41 31 72.5t70 31.5q41 0 76.5 -29.5t35.5 -68.5q0 -86 -64.5 -138.5t-152.5 -52.5q-100 0 -224 84 t-183 84q-29 0 -68 -30.5t-61 -30.5q-35 0 -35 29z" />
<glyph unicode="{" horiz-adv-x="802" d="M25 584l14 71q147 20 225 92t109 214q6 35 17 102t18 100q39 182 163 254q102 59 301 60l-12 -58q-119 -8 -178 -67.5t-84 -177.5q-8 -37 -19.5 -110t-19.5 -110q-57 -272 -313 -333q186 -66 186 -240q0 -66 -24 -160q-20 -80 -41 -158q-10 -51 -11 -88q0 -135 164 -153 l-12 -58q-170 0 -248 43q-92 49 -92 175q0 59 20 145q18 74 37 145q14 59 15 107q0 174 -215 205z" />
<glyph unicode="|" horiz-adv-x="495" d="M-72 -340l369 1737h205l-369 -1737h-205z" />
<glyph unicode="}" horiz-adv-x="802" d="M-252 -236l12 58q121 8 185 74q55 57 82 180q6 33 16 96.5t18 95.5q31 145 99 226q76 90 219 127q-186 41 -186 213q0 72 35.5 212t35.5 209q0 150 -164 164l13 58q168 0 245 -41q94 -49 95 -172q0 -59 -23 -150q-20 -74 -39 -147q-12 -57 -12 -103q0 -174 215 -209 l-14 -71q-147 -20 -225.5 -92t-108.5 -213q-6 -35 -17.5 -104t-17.5 -101q-39 -180 -164 -252q-102 -57 -299 -58z" />
<glyph unicode="~" horiz-adv-x="737" d="M236 1110q86 246 264 246q35 0 115.5 -45t115.5 -45q63 0 111 86h65q-86 -246 -264 -246q-37 0 -117 46t-116 46q-59 0 -109 -88h-65z" />
<glyph unicode="&#xa1;" horiz-adv-x="514" d="M25 135q0 24 6 51q29 133 137 371q119 254 151 369h60q-39 -176 -23 -434q14 -227 0 -295q-18 -82 -69 -138q-57 -66 -135 -65q-127 0 -127 141zM248 1202q0 86 60.5 147.5t146.5 61.5q135 0 135 -127q0 -84 -61.5 -147.5t-145.5 -63.5q-135 0 -135 129z" />
<glyph unicode="&#xa2;" horiz-adv-x="923" d="M0 291q0 233 164 432q174 211 401 211q90 0 160 -49q76 -56 76 -142q0 -57 -37 -94t-94 -37q-41 0 -77 23.5t-36 64.5q0 25 18.5 68t18.5 66q0 12 -16.5 23t-30.5 11q-121 0 -215 -229q-80 -193 -80 -338q0 -76 29 -129q35 -70 102 -70q139 0 260 189l53 -43 q-162 -274 -399 -275q-133 0 -215 91.5t-82 226.5zM41 -201l717 1377h98l-717 -1377h-98z" />
<glyph unicode="&#xa3;" horiz-adv-x="1075" d="M27 104q0 86 71 156q80 78 197 78q49 0 102 -16q6 35 6 71q0 39 -10 112t-12 105h-201l33 154h160q4 254 110 416q133 199 396 198q102 0 174 -45q82 -51 82 -141q0 -20 -5 -45q-12 -59 -68 -104.5t-112 -45.5q-82 0 -82 109q0 51 21 125q4 12 4 22q0 59 -70 60 q-106 0 -137 -144q-16 -76 -14 -202q2 -152 -2 -203h229l-33 -154h-217q-12 -164 -108 -334q117 -43 196 -43q152 0 211 142h43q-37 -180 -130 -291t-206 -111q-117 0 -221 123q-119 -121 -254 -121q-154 0 -153 129zM109 117q0 -84 92 -82q53 2 103 42t65 93 q-31 70 -133 70q-55 0 -91 -38t-36 -85z" />
<glyph unicode="&#xa4;" horiz-adv-x="1339" d="M88 385l246 205q-35 70 -35 149q0 184 137 334l-157 205l127 106l161 -202q123 78 260 78q139 0 232 -78l246 202l81 -106l-247 -205q35 -70 35 -151q0 -180 -138 -332l160 -205l-127 -104l-160 202q-123 -78 -262 -77q-141 0 -229 77l-248 -202zM455 774 q0 -94 63.5 -155.5t161.5 -61.5q129 0 234.5 100.5t105.5 229.5q0 94 -62.5 157.5t-160.5 63.5q-129 0 -235.5 -102.5t-106.5 -231.5z" />
<glyph unicode="&#xa5;" horiz-adv-x="1533" d="M78 113l51 237h481l-51 -237h-481zM113 1305l12 51h655l-12 -51q-154 0 -168 -66q-6 -29 8 -76l150 -493l340 417q70 86 69 142q0 76 -137 76l12 51h431l-13 -51q-84 0 -198 -142l-459 -561l-78 -364q-10 -47 -10 -80q0 -106 145 -107l-10 -51h-674l10 51q100 0 147.5 43 t69.5 144l62 294l-209 617q-47 143 -143 156zM135 412l49 237h482l-50 -237h-481zM543 111l51 237h481l-51 -237h-481zM600 412l49 237h481l-49 -237h-481z" />
<glyph unicode="&#xa6;" horiz-adv-x="335" d="M0 -242v740h205v-740h-205zM0 756v741h205v-741h-205z" />
<glyph unicode="&#xa7;" horiz-adv-x="1155" d="M59 -113q0 82 56.5 139.5t138.5 57.5q49 0 78.5 -29.5t29.5 -74.5q0 -14 -2 -29q-10 -45 -49 -82q-20 -18 -39 -37q-8 -31 31 -49q29 -14 62 -14q70 0 128 48t58 115q0 59 -78 148q-18 20 -215 227q-123 133 -123 252q0 125 98 217q92 84 224 105q-109 121 -109 223 q0 27 6 53q27 129 140.5 207t279.5 78q123 0 198 -53.5t75 -139.5q0 -80 -52.5 -138t-132.5 -58q-53 0 -86 28.5t-33 71.5q0 51 45 100q23 25 48 47q6 27 -23 46.5t-57 19.5q-66 0 -116 -49t-50 -113q0 -80 149 -229l146 -150q123 -125 123 -250q0 -129 -99 -219 q-90 -84 -223 -104q104 -121 105 -232q0 -158 -150 -249q-127 -78 -295 -78q-129 0 -208 54t-79 140zM332 725q-18 -90 119 -235.5t190 -145.5q156 0 170 66q18 89 -129 249q-121 131 -184 132q-152 0 -166 -66z" />
<glyph unicode="&#xa8;" horiz-adv-x="866" d="M20 1208q0 16 5 35q27 135 149 135q125 0 125 -137q0 -63 -51 -104t-117 -41q-111 0 -111 112zM483 1208q0 16 2 35q27 135 150 135q125 0 125 -137q0 -63 -51.5 -104t-114.5 -41q-111 0 -111 112z" />
<glyph unicode="&#xa9;" horiz-adv-x="1914" d="M141 586q0 76 17 153q68 317 348 541.5t610 224.5q285 0 467 -174t182 -438q0 -76 -16 -154q-68 -315 -349 -539.5t-609 -224.5q-287 0 -468.5 174.5t-181.5 436.5zM283 614q0 -219 150.5 -362t385.5 -143q270 0 501.5 185t289.5 445q12 66 12 127q0 217 -149.5 360.5 t-385.5 143.5q-272 0 -503.5 -184.5t-286.5 -446.5q-14 -63 -14 -125zM481 625q0 55 13 114q43 205 198.5 340t360.5 135q45 0 121.5 -30.5t115.5 -30.5q57 0 80 61h35l-66 -313h-34q-14 111 -74 182q-70 84 -176 84q-129 0 -228 -147q-74 -113 -104 -258q-16 -76 -16 -152 q0 -276 190 -276q86 0 179 47t159 119l31 -35q-78 -92 -191.5 -144.5t-226.5 -52.5q-172 0 -269.5 98.5t-97.5 258.5z" />
<glyph unicode="&#xaa;" horiz-adv-x="679" d="M8 768l45 119h432l-45 -119h-432zM43 1026q0 113 78 229q86 127 194 127q59 0 76 -67l19 55h108l-86 -293q-18 -66 -18 -80q0 -20 14 -20q35 0 70 70l22 -15q-72 -131 -155 -131q-61 0 -62 57q0 31 10 70q-70 -125 -163 -125q-47 0 -77 36t-30 87zM166 1038q0 -61 45 -61 q68 0 115 117q33 86 41 176q6 69 -37 69q-57 0 -113 -125q-51 -111 -51 -176z" />
<glyph unicode="&#xab;" horiz-adv-x="1091" d="M98 461q145 104 293 209q236 166 260 170q12 2 21.5 -6.5t5.5 -22.5q-25 -76 -307 -350q169 -260 157 -352q-2 -27 -26 -27q-31 0 -56 27l-161 170q-61 61 -187 182zM522 461q145 104 291 209q238 166 260 170q14 2 22.5 -6.5t4.5 -22.5q-23 -70 -133 -182l-176 -168 q51 -84 104 -168q63 -116 55 -184q-2 -27 -24 -27q-33 0 -58 27l-163 170q-68 70 -183 182z" />
<glyph unicode="&#xac;" horiz-adv-x="894" d="M106 436l74 221h699l-72 -221h-701zM662 281v366l219 -39v-366z" />
<glyph unicode="&#xad;" horiz-adv-x="632" d="M72 383l51 238h481l-51 -238h-481z" />
<glyph unicode="&#xae;" horiz-adv-x="1914" d="M143 586q0 76 17 153q68 317 348 541.5t610 224.5q285 0 467 -174t182 -438q0 -76 -16 -154q-68 -315 -349 -539.5t-609 -224.5q-287 0 -468.5 174.5t-181.5 436.5zM285 614q0 -219 150.5 -362t385.5 -143q270 0 501.5 185t289.5 445q12 66 12 127q0 217 -149 360.5 t-385 143.5q-272 0 -504 -184.5t-287 -446.5q-14 -63 -14 -125zM457 342l6 31q109 0 133 114l115 549q6 25 6 43q0 53 -88 66l6 31h366q324 0 324 -179q0 -23 -6 -45q-27 -127 -229 -202l147 -316q25 -55 78 -61l-8 -31h-263l-165 389h-37l-51 -244q-6 -29 -7 -47 q0 -68 93 -67l-7 -31h-413zM850 770q145 0 197 49q46 43 77 193q4 14 4 26q0 94 -124 95q-51 0 -67.5 -17.5t-27.5 -68.5z" />
<glyph unicode="&#xaf;" horiz-adv-x="993" d="M-98 1266l43 202h999l-43 -202h-999z" />
<glyph unicode="&#xb0;" horiz-adv-x="804" d="M233 1073q0 104 76 189q82 94 205 94q92 0 141 -53q43 -47 43 -121q0 -106 -75 -193q-82 -92 -205 -92q-92 0 -138.5 49t-46.5 127zM350 1098q0 -86 90 -86q66 0 106 44t40 97q0 92 -94 92q-61 0 -101.5 -46t-40.5 -101z" />
<glyph unicode="&#xb1;" horiz-adv-x="1261" d="M-23 0l105 154h997l-104 -154h-998zM113 547l41 194h403l107 498h198l-106 -498h403l-41 -194h-403l-107 -500h-198l106 500h-403z" />
<glyph unicode="&#xb2;" horiz-adv-x="581" d="M41 692l6 31q203 178 225 203q145 145 146 248q0 96 -92 96q-88 0 -140 -90h-24q31 86 105.5 143t162.5 57q139 0 139 -131q0 -20 -6 -43q-14 -74 -76 -143q-35 -39 -125 -113l-147 -123h133q70 0 99.5 13.5t70.5 70.5h21l-88 -219h-410z" />
<glyph unicode="&#xb3;" horiz-adv-x="536" d="M61 772q12 61 82 62q39 0 76 -51.5t74 -51.5q51 0 88 53q35 47 35 101q0 119 -158 168l4 18q72 27 96 43q45 33 58 86q2 12 2 25q0 74 -76 73q-78 0 -143 -77l-17 10q102 152 260 151q55 0 94 -27.5t39 -76.5q1 -90 -108 -158q80 -55 80 -141q0 -119 -116 -209t-236 -90 q-55 0 -93 18q-51 25 -41 74z" />
<glyph unicode="&#xb4;" horiz-adv-x="643" d="M195 1006h90l176 98q78 43 78 90q0 45 -32 77t-77 32q-37 0 -57 -17q-29 -23 -76 -104z" />
<glyph unicode="&#xb5;" horiz-adv-x="1214" d="M-59 -303q0 37 10 90q10 47 42 132t42 132l184 871h287l-121 -570q-12 -57 -12 -110q0 -135 82 -136q72 0 129 95q45 72 63 153l119 568h285l-140 -664q-10 -39 -10 -68q0 -53 31 -53q35 0 80 62q31 45 49 92h63q-35 -129 -116 -219q-96 -102 -220 -103q-76 0 -127 43 t-63 115q-147 -152 -297 -152q-96 0 -170 70l25 -125q14 -74 14 -127q0 -41 -8 -82q-25 -119 -137 -119q-84 0 -84 105z" />
<glyph unicode="&#xb6;" horiz-adv-x="1003" d="M-14 1139q0 186 137 286q119 88 313 88h496v-55h-133v-1839h-74v1839h-186v-1839h-72v1141q-223 8 -338 80q-143 92 -143 299z" />
<glyph unicode="&#xb7;" horiz-adv-x="489" d="M25 432q0 20 6 41q31 150 180 150q150 0 149 -152q0 -72 -61 -118t-139 -46q-135 0 -135 125z" />
<glyph unicode="&#xb8;" horiz-adv-x="708" d="M16 -340l60 88q27 -20 53 -39q39 -20 98 -20q86 0 105 82q2 12 2 20q0 25 -25 33q-16 4 -69 4q-27 0 -60 -6l37 178h70l-19 -92q49 6 74 6q154 0 154 -104q0 -16 -4 -37q-39 -180 -269 -181q-98 0 -207 68z" />
<glyph unicode="&#xb9;" horiz-adv-x="552" d="M66 688l6 23q92 0 123 51q10 16 12 24l90 424q12 57 -35 58q-29 0 -72 -23l7 25l268 106h18l-125 -590q-2 -10 -2 -20q0 -55 105 -55l-6 -23h-389z" />
<glyph unicode="&#xba;" horiz-adv-x="806" d="M104 748l50 108h477l-49 -108h-478zM233 1073q0 106 76 191q82 92 207 92q90 0 137 -49.5t47 -124.5q0 -106 -75 -191q-84 -94 -207 -94q-90 0 -139 53q-45 47 -46 123zM350 1100q0 -88 92 -88q63 0 107 47q37 41 37 94q0 92 -94 92q-61 0 -101.5 -46t-40.5 -99z" />
<glyph unicode="&#xbb;" horiz-adv-x="1087" d="M23 104q14 70 133 191l176 168q-176 270 -160 348q6 29 33 29q41 0 135 -105q63 -74 127 -145l133 -127q-143 -102 -287 -205q-246 -176 -268 -176q-27 0 -22 22zM444 104q14 70 134 191l176 168q-176 268 -160 348q6 29 35 29q37 0 133 -107q63 -72 127 -143l133 -127 q-145 -106 -291 -211q-242 -172 -274 -170q-16 2 -13 22z" />
<glyph unicode="&#xbc;" horiz-adv-x="1140" d="M63 702l7 23q92 0 123 51q10 16 12 25l90 424q10 57 -35 57q-29 0 -72 -22l7 24l268 107h18l-125 -590q-4 -10 -4 -21q0 -55 107 -55l-6 -23h-390zM297 109l549 1101h78l-551 -1101h-76zM647 152l23 110l403 428h78l-90 -430h59l-22 -108h-62l-30 -152h-144l31 152h-246z M715 260h203l59 285z" />
<glyph unicode="&#xbd;" horiz-adv-x="1253" d="M70 696l4 23q94 0 123 51q10 16 12 27l90 422q12 57 -33 57q-29 0 -71 -21l4 23l270 108h16l-125 -589q-2 -12 -2 -23q0 -55 105 -55l-4 -23h-389zM324 109l550 1101h76l-549 -1101h-77zM723 2l6 29q203 180 225 202q143 147 144 250q0 94 -90 95q-88 0 -140 -89h-24 q31 86 105.5 142.5t160.5 56.5q141 0 141 -129q0 -20 -6 -45q-14 -74 -76 -141q-35 -39 -125 -115l-147 -121h133q70 0 99.5 13.5t70.5 68.5h21l-88 -217h-410z" />
<glyph unicode="&#xbe;" horiz-adv-x="1329" d="M66 774q14 63 84 64q37 0 73.5 -51.5t73.5 -51.5q51 0 90 51q33 49 33 103q0 119 -156 166l4 18q70 27 97 45q45 31 57 86q2 12 2 25q0 74 -78 74q-76 0 -143 -80l-17 10q104 154 260 153q57 0 96.5 -27.5t39.5 -76.5q0 -90 -109 -158q78 -55 78 -141q0 -119 -119 -213 q-111 -88 -231 -88q-55 0 -95 18q-51 25 -40 74zM373 109l551 1101h75l-550 -1101h-76zM776 152l25 110l401 428h80l-92 -430h61l-24 -108h-60l-32 -152h-144l33 152h-248zM844 260h203l61 285z" />
<glyph unicode="&#xbf;" horiz-adv-x="860" d="M2 231q0 33 8 70q43 205 307 336q106 53 119 65q39 31 58 119l14 72h63l-18 -94q-16 -72 -120.5 -239t-129.5 -275q-10 -49 -10 -92q0 -158 125 -158q37 0 78 20q49 23 55 56q6 31 -17.5 79t-23.5 74q0 61 49 107.5t111 46.5q113 0 112 -115q0 -18 -4 -39 q-31 -141 -170 -223q-121 -70 -268 -70q-143 0 -236 64q-102 72 -102 196zM440 1182q0 18 4 39q16 76 73.5 122t133.5 46q133 0 133 -121q0 -84 -61 -150.5t-143 -66.5q-63 0 -101.5 35.5t-38.5 95.5z" />
<glyph unicode="&#xc0;" horiz-adv-x="1472" d="M0 0l12 55q100 0 201 162l719 1172h51l236 -1131q20 -98 34 -129q33 -63 101 -74l-13 -55h-639l13 55q172 0 186 64q2 14 -43 276h-442q-23 -37 -80 -137q-63 -117 -70 -135q-12 -68 148 -68l-13 -55h-401zM463 477h383l-98 473zM649 1640q0 45 32 77t77 32q37 0 57 -16 q29 -23 76 -105l102 -176h-90l-176 98q-78 43 -78 90z" />
<glyph unicode="&#xc1;" horiz-adv-x="1472" d="M0 0l12 55q100 0 201 162l719 1172h51l236 -1131q20 -98 34 -129q33 -63 101 -74l-13 -55h-639l13 55q172 0 186 64q2 14 -43 276h-442q-23 -37 -80 -137q-63 -117 -70 -135q-12 -68 148 -68l-13 -55h-401zM463 477h383l-98 473zM915 1448h91l174 98q78 43 77 90 q0 45 -31.5 77t-76.5 32q-37 0 -57 -16q-27 -23 -76 -105z" />
<glyph unicode="&#xc2;" horiz-adv-x="1472" d="M0 0l12 55q100 0 201 162l719 1172h51l236 -1131q20 -98 34 -129q33 -63 101 -74l-13 -55h-639l13 55q172 0 186 64q2 14 -43 276h-442q-23 -37 -80 -137q-63 -117 -70 -135q-12 -68 148 -68l-13 -55h-401zM463 477h383l-98 473zM645 1450l287 289h147l164 -289h-84 l-180 160l-250 -160h-84z" />
<glyph unicode="&#xc3;" horiz-adv-x="1472" d="M0 0l12 55q100 0 201 162l719 1172h51l236 -1131q20 -98 34 -129q33 -63 101 -74l-13 -55h-639l13 55q172 0 186 64q2 14 -43 276h-442q-23 -37 -80 -137q-63 -117 -70 -135q-12 -68 148 -68l-13 -55h-401zM463 477h383l-98 473zM610 1454q86 246 264 246q37 0 117 -45 t115 -45q63 0 111 86h65q-86 -246 -264 -246q-37 0 -117 46t-117 46q-59 0 -108 -88h-66z" />
<glyph unicode="&#xc4;" horiz-adv-x="1472" d="M0 0l12 55q100 0 201 162l719 1172h51l236 -1131q20 -98 34 -129q33 -63 101 -74l-13 -55h-639l13 55q172 0 186 64q2 14 -43 276h-442q-23 -37 -80 -137q-63 -117 -70 -135q-12 -68 148 -68l-13 -55h-401zM463 477h383l-98 473zM602 1565q0 18 4 37q27 133 148 133 q125 0 125 -136q0 -63 -51.5 -105t-114.5 -42q-111 0 -111 113zM1063 1565q0 18 4 37q27 133 150 133t122 -136q0 -63 -51 -105t-114 -42q-111 0 -111 113z" />
<glyph unicode="&#xc5;" horiz-adv-x="1472" d="M0 0l12 55q100 0 201 162l719 1172h51l236 -1131q20 -98 34 -129q33 -63 101 -74l-13 -55h-639l13 55q172 0 186 64q2 14 -43 276h-442q-23 -37 -80 -137q-63 -117 -70 -135q-12 -68 148 -68l-13 -55h-401zM463 477h383l-98 473zM852 1567q0 72 56 127t128 55 q53 0 87 -34t34 -85q0 -72 -57.5 -126t-126.5 -54q-53 0 -87 33t-34 84zM936 1599q-6 -29 9.5 -48t43.5 -19q70 0 84 67q6 29 -10 48.5t-45 19.5q-68 0 -82 -68z" />
<glyph unicode="&#xc6;" horiz-adv-x="2070" d="M0 0l12 55q59 0 119 47q27 20 96 95l1108 1159h809l-86 -404h-45q2 27 2 49q0 160 -98 226q-84 55 -270 55q-96 0 -125 -14q-45 -23 -64 -113l-90 -426q315 0 379 297h47l-143 -676h-52q12 55 13 103q0 209 -258 209l-94 -443q-6 -33 -7 -57q0 -80 80 -80q217 0 367 72 q168 82 287 272h55l-174 -426h-1166l13 55q55 0 114 15q82 18 91 51l59 274h-406q-119 -121 -245 -272q-2 -10 -2 -21q0 -47 88 -47l-13 -55h-401zM653 477h344l99 463z" />
<glyph unicode="&#xc7;" horiz-adv-x="1359" d="M125 504q0 84 18 172q66 309 300.5 511t539.5 202q70 0 184.5 -45.5t175.5 -45.5q82 0 117 91h53l-98 -471h-51q-23 166 -113 276q-102 125 -264 125q-193 0 -340 -221q-113 -170 -160 -389q-25 -113 -24 -226q0 -178 61 -284q74 -131 228 -131q129 0 268 69.5t240 177.5 l45 -51q-117 -139 -288 -217t-341 -78q-258 0 -404.5 147.5t-146.5 387.5zM416 -340l59 88q29 -20 55 -39q37 -20 99 -20q86 0 102 82q2 12 2 20q0 25 -24 33q-16 4 -70 4q-27 0 -57 -6l36 178h70l-20 -92q51 6 75 6q152 0 152 -104q0 -16 -4 -37q-37 -180 -266 -181 q-100 0 -209 68z" />
<glyph unicode="&#xc8;" horiz-adv-x="1366" d="M0 0l10 51q102 0 153.5 40t72.5 138l184 871q12 53 12 90q0 119 -143 117l10 49h1137l-86 -404h-45q2 27 2 49q0 160 -99 226q-84 55 -270 55q-96 0 -125 -14q-45 -23 -63 -113l-91 -426q315 0 379 297h47l-143 -676h-51q10 55 10 103q0 209 -256 209l-94 -443 q-6 -33 -6 -57q0 -80 80 -80q217 0 366 72q168 82 287 272h55l-174 -426h-1159zM590 1640q0 43 31.5 75t76.5 32q37 0 56 -14q29 -23 75 -107l103 -176h-90l-176 98q-76 43 -76 92z" />
<glyph unicode="&#xc9;" horiz-adv-x="1366" d="M0 0l10 51q102 0 153.5 40t72.5 138l184 871q12 53 12 90q0 119 -143 117l10 49h1137l-86 -404h-45q2 27 2 49q0 160 -99 226q-84 55 -270 55q-96 0 -125 -14q-45 -23 -63 -113l-91 -426q315 0 379 297h47l-143 -676h-51q10 55 10 103q0 209 -256 209l-94 -443 q-6 -33 -6 -57q0 -80 80 -80q217 0 366 72q168 82 287 272h55l-174 -426h-1159zM805 1452h90l176 98q76 43 76 92q0 43 -32 75t-77 32q-37 0 -55 -14q-29 -23 -76 -107z" />
<glyph unicode="&#xca;" horiz-adv-x="1366" d="M0 0l10 51q102 0 153.5 40t72.5 138l184 871q12 53 12 90q0 119 -143 117l10 49h1137l-86 -404h-45q2 27 2 49q0 160 -99 226q-84 55 -270 55q-96 0 -125 -14q-45 -23 -63 -113l-91 -426q315 0 379 297h47l-143 -676h-51q10 55 10 103q0 209 -256 209l-94 -443 q-6 -33 -6 -57q0 -80 80 -80q217 0 366 72q168 82 287 272h55l-174 -426h-1159zM606 1448l287 289h147l164 -289h-84l-182 160l-248 -160h-84z" />
<glyph unicode="&#xcb;" horiz-adv-x="1366" d="M0 0l10 51q102 0 153.5 40t72.5 138l184 871q12 53 12 90q0 119 -143 117l10 49h1137l-86 -404h-45q2 27 2 49q0 160 -99 226q-84 55 -270 55q-96 0 -125 -14q-45 -23 -63 -113l-91 -426q315 0 379 297h47l-143 -676h-51q10 55 10 103q0 209 -256 209l-94 -443 q-6 -33 -6 -57q0 -80 80 -80q217 0 366 72q168 82 287 272h55l-174 -426h-1159zM537 1571q0 16 4 35q27 135 149 135q125 0 125 -137q0 -63 -51.5 -104.5t-114.5 -41.5q-113 0 -112 113zM999 1571q0 16 2 35q27 135 150 135q125 0 125 -137q0 -63 -51.5 -104.5t-114.5 -41.5 q-111 0 -111 113z" />
<glyph unicode="&#xcc;" horiz-adv-x="864" d="M0 0l10 51q100 0 152.5 38t73.5 136l198 926q6 33 6 57q0 59 -39 79t-122 20l10 49h690l-10 -49q-104 0 -144 -23q-51 -31 -71 -133l-197 -922q-8 -39 -8 -65q0 -113 158 -113l-13 -51h-694zM319 1638q0 45 32 77t77 32q37 0 57 -16q29 -23 76 -105l103 -176h-91l-176 98 q-78 43 -78 90z" />
<glyph unicode="&#xcd;" horiz-adv-x="864" d="M0 0l10 51q100 0 152.5 38t73.5 136l198 926q6 33 6 57q0 59 -39 79t-122 20l10 49h690l-10 -49q-104 0 -144 -23q-51 -31 -71 -133l-197 -922q-8 -39 -8 -65q0 -113 158 -113l-13 -51h-694zM573 1452h91l176 98q78 43 78 90q0 45 -32 77t-77 32q-37 0 -57 -16 q-27 -23 -76 -105z" />
<glyph unicode="&#xce;" horiz-adv-x="864" d="M0 0l10 51q100 0 152.5 38t73.5 136l198 926q6 33 6 57q0 59 -39 79t-122 20l10 49h690l-10 -49q-104 0 -144 -23q-51 -31 -71 -133l-197 -922q-8 -39 -8 -65q0 -113 158 -113l-13 -51h-694zM344 1444l287 289h147l164 -289h-84l-180 160l-250 -160h-84z" />
<glyph unicode="&#xcf;" horiz-adv-x="864" d="M0 0l10 51q100 0 152.5 38t73.5 136l198 926q6 33 6 57q0 59 -39 79t-122 20l10 49h690l-10 -49q-104 0 -144 -23q-51 -31 -71 -133l-197 -922q-8 -39 -8 -65q0 -113 158 -113l-13 -51h-694zM285 1565q0 16 4 34q27 135 149 136q125 0 125 -136q0 -66 -51 -106.5 t-117 -40.5q-111 0 -110 113zM745 1565q0 16 5 34q27 135 149 136q125 0 125 -136q0 -66 -51 -106.5t-117 -40.5q-111 0 -111 113z" />
<glyph unicode="&#xd0;" horiz-adv-x="1521" d="M14 0l11 51q166 12 198 172l191 891q10 45 10 78q0 119 -145 115l10 49h614q281 0 444.5 -131t163.5 -375q0 -82 -20 -174q-70 -332 -301 -508q-221 -168 -557 -168h-619zM178 510l55 233h519l-56 -233h-518zM532 150q0 -78 107 -78q377 0 504 598q29 137 28 256 q0 362 -272 362q-129 0 -158 -129l-200 -944q-8 -39 -9 -65z" />
<glyph unicode="&#xd1;" horiz-adv-x="1538" d="M0 0l10 51q98 0 145.5 42t67.5 140l197 920q-45 92 -51 100q-37 53 -90 54l10 49h411l517 -854l133 620q10 49 10 82q0 102 -150 101l11 51h444l-10 -51q-104 0 -148.5 -38t-66.5 -145l-246 -1153h-53l-658 1073l-172 -811q-10 -49 -10 -81q0 -55 34 -77t118 -22l-11 -51 h-442zM629 1454q86 246 264 246q37 0 118 -45t115 -45q61 0 111 86h66q-86 -246 -267 -246q-37 0 -116.5 46t-114.5 46q-61 0 -111 -88h-65z" />
<glyph unicode="&#xd2;" horiz-adv-x="1572" d="M125 502q0 82 18 172q66 309 302.5 512t543.5 203q262 0 411.5 -147.5t149.5 -389.5q0 -84 -18 -172q-66 -311 -304.5 -511t-547.5 -200q-260 0 -407.5 146.5t-147.5 386.5zM457 442q0 -409 254 -409q186 0 329 231q104 172 152 391q27 125 27 254q0 410 -258 410 q-184 0 -326 -232q-106 -172 -152 -389q-27 -127 -26 -256zM692 1640q0 45 32 77t77 32q37 0 57 -16q29 -23 76 -105l102 -176h-90l-176 98q-78 43 -78 90z" />
<glyph unicode="&#xd3;" horiz-adv-x="1572" d="M125 502q0 82 18 172q66 309 302.5 512t543.5 203q262 0 411.5 -147.5t149.5 -389.5q0 -84 -18 -172q-66 -311 -304.5 -511t-547.5 -200q-260 0 -407.5 146.5t-147.5 386.5zM457 442q0 -409 254 -409q186 0 329 231q104 172 152 391q27 125 27 254q0 410 -258 410 q-184 0 -326 -232q-106 -172 -152 -389q-27 -127 -26 -256zM948 1446h90l176 98q78 43 78 90q0 45 -32.5 77t-77.5 32q-37 0 -56 -17q-29 -20 -75 -104z" />
<glyph unicode="&#xd4;" horiz-adv-x="1572" d="M125 502q0 82 18 172q66 309 302.5 512t543.5 203q262 0 411.5 -147.5t149.5 -389.5q0 -84 -18 -172q-66 -311 -304.5 -511t-547.5 -200q-260 0 -407.5 146.5t-147.5 386.5zM457 442q0 -409 254 -409q186 0 329 231q104 172 152 391q27 125 27 254q0 410 -258 410 q-184 0 -326 -232q-106 -172 -152 -389q-27 -127 -26 -256zM696 1448l287 289h147l164 -289h-84l-182 160l-248 -160h-84z" />
<glyph unicode="&#xd5;" horiz-adv-x="1572" d="M125 502q0 82 18 172q66 309 302.5 512t543.5 203q262 0 411.5 -147.5t149.5 -389.5q0 -84 -18 -172q-66 -311 -304.5 -511t-547.5 -200q-260 0 -407.5 146.5t-147.5 386.5zM457 442q0 -409 254 -409q186 0 329 231q104 172 152 391q27 125 27 254q0 410 -258 410 q-184 0 -326 -232q-106 -172 -152 -389q-27 -127 -26 -256zM651 1458q86 246 264 246q35 0 116 -45t116 -45q63 0 110 86h66q-86 -246 -264 -246q-37 0 -117 46t-117 46q-59 0 -108 -88h-66z" />
<glyph unicode="&#xd6;" horiz-adv-x="1572" d="M125 502q0 82 18 172q66 309 302.5 512t543.5 203q262 0 411.5 -147.5t149.5 -389.5q0 -84 -18 -172q-66 -311 -304.5 -511t-547.5 -200q-260 0 -407.5 146.5t-147.5 386.5zM457 442q0 -409 254 -409q186 0 329 231q104 172 152 391q27 125 27 254q0 410 -258 410 q-184 0 -326 -232q-106 -172 -152 -389q-27 -127 -26 -256zM633 1567q0 18 2 37q27 133 149 133q125 0 125 -135q0 -63 -51.5 -105.5t-114.5 -42.5q-111 0 -110 113zM1094 1567q0 18 4 37q27 133 147 133q125 0 125 -135q0 -63 -51.5 -105.5t-114.5 -42.5q-111 0 -110 113z " />
<glyph unicode="&#xd7;" horiz-adv-x="1214" d="M2 0l8 35q92 0 187 102l278 297l-164 369q-47 111 -108 110l6 35h481l-8 -35q-113 0 -123 -45q-6 -29 41 -137q31 -63 62 -129l155 176q45 51 53 82q10 53 -86 53l9 35h342l-7 -35q-119 0 -239 -135l-207 -229l184 -430q35 -84 88 -84l-8 -35h-469l8 35q106 0 117 47 q6 29 -16 82l-88 215l-195 -211q-37 -41 -45 -72q-12 -61 92 -61l-6 -35h-342z" />
<glyph unicode="&#xd8;" horiz-adv-x="1572" d="M125 500q0 84 18 174q66 309 302.5 512t543.5 203q260 0 410.5 -147.5t150.5 -389.5q0 -84 -18 -172q-68 -311 -305.5 -511t-546.5 -200q-260 0 -407.5 146.5t-147.5 384.5zM399 -74l740 1469h102l-739 -1469h-103zM457 442q0 -409 254 -409q186 0 327 231 q106 172 154 389q27 125 27 254q0 412 -258 412q-184 0 -328 -234q-104 -172 -150 -389q-27 -125 -26 -254z" />
<glyph unicode="&#xd9;" horiz-adv-x="1523" d="M254 305q0 72 18 156l142 667q10 47 10 80q0 100 -145 99l10 49h672l-11 -49q-102 2 -149 -37t-70 -142l-135 -641q-27 -119 -27 -196q0 -227 224 -228q344 0 432 412l137 649q10 49 10 82q0 59 -37 81t-127 20l11 49h434l-11 -49q-88 2 -135 -47q-37 -41 -57 -136 l-125 -585q-59 -287 -201 -422q-156 -152 -434 -152q-436 0 -436 340zM711 1638q0 45 32.5 77t77.5 32q37 0 56 -16q29 -23 75 -105l103 -176h-90l-177 98q-78 43 -77 90z" />
<glyph unicode="&#xda;" horiz-adv-x="1523" d="M254 305q0 72 18 156l142 667q10 47 10 80q0 100 -145 99l10 49h672l-11 -49q-102 2 -149 -37t-70 -142l-135 -641q-27 -119 -27 -196q0 -227 224 -228q344 0 432 412l137 649q10 49 10 82q0 59 -37 81t-127 20l11 49h434l-11 -49q-88 2 -135 -47q-37 -41 -57 -136 l-125 -585q-59 -287 -201 -422q-156 -152 -434 -152q-436 0 -436 340zM924 1450h90l176 98q76 43 76 92q0 45 -32 76t-77 31q-37 0 -57 -14q-27 -23 -76 -107z" />
<glyph unicode="&#xdb;" horiz-adv-x="1523" d="M254 305q0 72 18 156l142 667q10 47 10 80q0 100 -145 99l10 49h672l-11 -49q-102 2 -149 -37t-70 -142l-135 -641q-27 -119 -27 -196q0 -227 224 -228q344 0 432 412l137 649q10 49 10 82q0 59 -37 81t-127 20l11 49h434l-11 -49q-88 2 -135 -47q-37 -41 -57 -136 l-125 -585q-59 -287 -201 -422q-156 -152 -434 -152q-436 0 -436 340zM715 1452l286 289h148l164 -289h-84l-182 160l-248 -160h-84z" />
<glyph unicode="&#xdc;" horiz-adv-x="1523" d="M254 305q0 72 18 156l142 667q10 47 10 80q0 100 -145 99l10 49h672l-11 -49q-102 2 -149 -37t-70 -142l-135 -641q-27 -119 -27 -196q0 -227 224 -228q344 0 432 412l137 649q10 49 10 82q0 59 -37 81t-127 20l11 49h434l-11 -49q-88 2 -135 -47q-37 -41 -57 -136 l-125 -585q-59 -287 -201 -422q-156 -152 -434 -152q-436 0 -436 340zM651 1567q0 18 4 37q27 133 148 133q125 0 125 -135q0 -63 -51.5 -105.5t-114.5 -42.5q-111 0 -111 113zM1112 1567q0 18 4 37q27 133 150 133t123 -135q0 -63 -51.5 -105.5t-114.5 -42.5 q-111 0 -111 113z" />
<glyph unicode="&#xdd;" horiz-adv-x="1472" d="M276 1305l13 51h655l-10 -51q-156 0 -170 -64q-6 -31 8 -78l150 -493l340 417q72 88 71 142q0 76 -137 76l10 51h430l-10 -51q-84 0 -201 -142l-458 -561l-78 -364q-10 -47 -10 -80q0 -106 147 -107l-12 -51h-674l10 51q100 0 147.5 43t69.5 144l62 294l-209 617 q-47 143 -144 156zM877 1450h90l174 98q78 43 78 90q0 45 -32 77t-77 32q-37 0 -57 -16q-27 -23 -76 -105z" />
<glyph unicode="&#xde;" horiz-adv-x="1191" d="M0 2l10 45q102 0 133 148l201 942q16 78 16 100q0 72 -77 72l8 45h366l-73 -350q127 167 297 167q139 0 209 -102q59 -88 59 -231q0 -72 -14 -146q-41 -193 -158 -330q-135 -164 -315 -163q-147 0 -209 123l-17 -78q-14 -66 -14 -99q0 -94 123 -94l-10 -49h-535zM475 430 q39 -121 121 -121q94 0 174 154q57 106 82 229q18 82 18 162q1 195 -110 195q-88 0 -180 -127z" />
<glyph unicode="&#xdf;" horiz-adv-x="1257" d="M37 0l12 53q78 4 109 56q16 29 37 122l167 787q39 186 176.5 291.5t325.5 105.5q139 0 232 -57q109 -63 108 -184q0 -29 -8 -62q-49 -240 -360 -305q313 -53 313 -305q0 -51 -12 -109q-37 -174 -160 -295q-133 -131 -303 -131q-98 0 -142 41l46 68q31 -27 63 -27 q94 0 152 156q20 53 57 227q23 109 22 168q0 164 -167 164l16 72q106 0 153 86q25 43 54 180q18 86 18 131q0 121 -108 121q-88 0 -133 -84q-23 -45 -48 -160l-235 -1110h-385z" />
<glyph unicode="&#xe0;" horiz-adv-x="1124" d="M0 221q0 227 158 459q172 256 387 256q121 0 153 -137l35 112h217l-170 -587q-37 -127 -37 -160q0 -41 27 -41q72 0 141 139l45 -29q-147 -260 -311 -260q-49 0 -86 33t-37 82q0 61 21 139q-139 -252 -328 -252q-96 0 -155.5 74t-59.5 172zM248 246q0 -121 88 -121 q133 0 227 233q70 172 86 353q12 137 -74 137q-115 0 -227 -248q-100 -219 -100 -354zM285 1239q0 45 31.5 77t76.5 32q37 0 56 -17q29 -23 75 -104l103 -176h-90l-177 98q-76 43 -75 90z" />
<glyph unicode="&#xe1;" horiz-adv-x="1124" d="M0 221q0 227 158 459q172 256 387 256q121 0 153 -137l35 112h217l-170 -587q-37 -127 -37 -160q0 -41 27 -41q72 0 141 139l45 -29q-147 -260 -311 -260q-49 0 -86 33t-37 82q0 61 21 139q-139 -252 -328 -252q-96 0 -155.5 74t-59.5 172zM248 246q0 -121 88 -121 q133 0 227 233q70 172 86 353q12 137 -74 137q-115 0 -227 -248q-100 -219 -100 -354zM537 1049h90l176 98q78 43 78 90q0 45 -33 77t-78 32q-37 0 -55 -15q-29 -23 -76 -106z" />
<glyph unicode="&#xe2;" horiz-adv-x="1124" d="M0 221q0 227 158 459q172 256 387 256q121 0 153 -137l35 112h217l-170 -587q-37 -127 -37 -160q0 -41 27 -41q72 0 141 139l45 -29q-147 -260 -311 -260q-49 0 -86 33t-37 82q0 61 21 139q-139 -252 -328 -252q-96 0 -155.5 74t-59.5 172zM248 246q0 -121 88 -121 q133 0 227 233q70 172 86 353q12 137 -74 137q-115 0 -227 -248q-100 -219 -100 -354zM365 1055l286 288h148l164 -288h-84l-181 159l-249 -159h-84z" />
<glyph unicode="&#xe3;" horiz-adv-x="1124" d="M0 221q0 227 158 459q172 256 387 256q121 0 153 -137l35 112h217l-170 -587q-37 -127 -37 -160q0 -41 27 -41q72 0 141 139l45 -29q-147 -260 -311 -260q-49 0 -86 33t-37 82q0 61 21 139q-139 -252 -328 -252q-96 0 -155.5 74t-59.5 172zM248 246q0 -121 88 -121 q133 0 227 233q70 172 86 353q12 137 -74 137q-115 0 -227 -248q-100 -219 -100 -354zM352 1055q86 246 264 245q35 0 116 -45t116 -45q63 0 110 86h66q-86 -246 -264 -245q-37 0 -118 46t-116 46q-59 0 -108 -88h-66z" />
<glyph unicode="&#xe4;" horiz-adv-x="1124" d="M0 221q0 227 158 459q172 256 387 256q121 0 153 -137l35 112h217l-170 -587q-37 -127 -37 -160q0 -41 27 -41q72 0 141 139l45 -29q-147 -260 -311 -260q-49 0 -86 33t-37 82q0 61 21 139q-139 -252 -328 -252q-96 0 -155.5 74t-59.5 172zM248 246q0 -121 88 -121 q133 0 227 233q70 172 86 353q12 137 -74 137q-115 0 -227 -248q-100 -219 -100 -354zM274 1161q0 18 5 37q27 133 147 133q125 0 125 -135q0 -63 -51.5 -105t-114.5 -42q-111 0 -111 112zM735 1161q0 18 4 37q27 133 150 133t123 -135q0 -63 -50 -105t-116 -42 q-111 0 -111 112z" />
<glyph unicode="&#xe5;" horiz-adv-x="1124" d="M0 221q0 227 158 459q172 256 387 256q121 0 153 -137l35 112h217l-170 -587q-37 -127 -37 -160q0 -41 27 -41q72 0 141 139l45 -29q-147 -260 -311 -260q-49 0 -86 33t-37 82q0 61 21 139q-139 -252 -328 -252q-96 0 -155.5 74t-59.5 172zM248 246q0 -121 88 -121 q133 0 227 233q70 172 86 353q12 137 -74 137q-115 0 -227 -248q-100 -219 -100 -354zM494 1167q0 70 57 125.5t127 55.5q53 0 87 -34t34 -85q0 -70 -56.5 -125t-128.5 -55q-53 0 -86.5 33.5t-33.5 84.5zM580 1198q-6 -29 9 -48.5t44 -19.5q68 0 82 68q6 29 -10.5 48.5 t-42.5 19.5q-68 0 -82 -68z" />
<glyph unicode="&#xe6;" horiz-adv-x="1486" d="M33 133q0 25 6 53q35 164 250 267q121 55 362 112l31 152q6 25 6 47q0 115 -125 115q-37 0 -78 -15q-55 -18 -61 -47q-4 -20 13.5 -63t11.5 -68q-10 -53 -57.5 -85t-100.5 -32q-109 0 -109 103q0 18 4 37q25 119 185 188q129 57 262 57q186 0 270 -100q129 94 275 94 q145 0 221 -94q66 -86 65 -227q0 -66 -14 -135h-496q-14 -61 -14 -125q0 -244 168 -244q113 0 252 131l35 -37q-203 -246 -437 -246q-222 0 -290 215q-209 -211 -445 -211q-190 0 -190 158zM365 203q0 -102 79 -103q66 0 156 86l68 316q-119 -23 -205 -99q-98 -88 -98 -200z M666 494zM971 571h254l22 105q8 45 8 86q0 123 -81 123q-68 0 -121 -74q-45 -59 -60 -133z" />
<glyph unicode="&#xe7;" horiz-adv-x="923" d="M0 291q0 233 164 432q174 211 401 211q90 0 163 -51.5t73 -139.5q0 -57 -37 -94t-94 -37q-41 0 -74 23q-39 27 -39 65q0 25 18.5 68t18.5 66q0 14 -16.5 24t-30.5 10q-121 0 -215 -229q-80 -193 -80 -338q0 -76 29 -129q35 -70 102 -70q139 0 260 189l53 -43 q-162 -274 -399 -275q-133 0 -215 91.5t-82 226.5zM66 -340l59 88q27 -20 53 -39q39 -20 101 -20q86 0 102 82q2 12 2 20q0 25 -25 33q-16 4 -69 4q-27 0 -60 -6l39 178h70l-21 -92q51 6 76 6q152 0 152 -104q0 -16 -4 -37q-37 -180 -267 -181q-99 0 -208 68z" />
<glyph unicode="&#xe8;" horiz-adv-x="921" d="M0 291q0 227 164 428q172 211 395 211q90 0 152 -47q69 -52 69 -138q0 -270 -514 -370q-12 -45 -12 -113q0 -63 35 -106q37 -49 98 -50q115 0 229 183l58 -39q-131 -276 -367 -277q-137 0 -222 89.5t-85 228.5zM258 1241q0 45 32 77t77 32q37 0 55 -15q29 -23 76 -106 l102 -176h-90l-176 98q-76 43 -76 90zM281 442q131 27 225 117q104 100 104 225q0 80 -63 80q-96 0 -178 -166q-57 -115 -88 -256z" />
<glyph unicode="&#xe9;" horiz-adv-x="921" d="M0 291q0 227 164 428q172 211 395 211q90 0 152 -47q69 -52 69 -138q0 -270 -514 -370q-12 -45 -12 -113q0 -63 35 -106q37 -49 98 -50q115 0 229 183l58 -39q-131 -276 -367 -277q-137 0 -222 89.5t-85 228.5zM281 442q131 27 225 117q104 100 104 225q0 80 -63 80 q-96 0 -178 -166q-57 -115 -88 -256zM516 1049h90l176 98q76 43 76 90q0 45 -31.5 77t-76.5 32q-37 0 -58 -17q-27 -23 -76 -104z" />
<glyph unicode="&#xea;" horiz-adv-x="921" d="M0 291q0 227 164 428q172 211 395 211q90 0 152 -47q69 -52 69 -138q0 -270 -514 -370q-12 -45 -12 -113q0 -63 35 -106q37 -49 98 -50q115 0 229 183l58 -39q-131 -276 -367 -277q-137 0 -222 89.5t-85 228.5zM256 1055l287 288h147l164 -288h-84l-180 159l-250 -159 h-84zM281 442q131 27 225 117q104 100 104 225q0 80 -63 80q-96 0 -178 -166q-57 -115 -88 -256z" />
<glyph unicode="&#xeb;" horiz-adv-x="921" d="M0 291q0 227 164 428q172 211 395 211q90 0 152 -47q69 -52 69 -138q0 -270 -514 -370q-12 -45 -12 -113q0 -63 35 -106q37 -49 98 -50q115 0 229 183l58 -39q-131 -276 -367 -277q-137 0 -222 89.5t-85 228.5zM225 1163q0 16 4 37q27 133 150 133t123 -135 q0 -66 -51.5 -106.5t-114.5 -40.5q-111 0 -111 112zM281 442q131 27 225 117q104 100 104 225q0 80 -63 80q-96 0 -178 -166q-57 -115 -88 -256zM686 1163q0 16 4 37q27 133 150 133q125 0 125 -135q0 -66 -51 -106.5t-117 -40.5q-111 0 -111 112z" />
<glyph unicode="&#xec;" horiz-adv-x="634" d="M-2 123q0 39 27 133l106 379q27 94 27 131q0 57 -103 55l-2 51q197 18 398 62l-185 -680q-16 -59 -16 -74q0 -51 35 -51q61 0 139 139l41 -26q-139 -266 -330 -267q-63 0 -100 41t-37 107zM31 1239q0 45 31.5 76t76.5 31q37 0 58 -15q29 -23 75 -106l103 -176h-90 l-176 98q-78 43 -78 92z" />
<glyph unicode="&#xed;" horiz-adv-x="634" d="M4 123q0 39 27 133l106 379q27 94 27 131q0 57 -103 55l-2 51q197 18 398 62l-185 -680q-16 -59 -16 -74q0 -51 35 -51q59 0 139 139l41 -26q-139 -266 -330 -267q-66 0 -101.5 41t-35.5 107zM293 1049h90l176 98q76 43 76 92q0 43 -32 75t-77 32q-37 0 -55 -15 q-29 -23 -76 -106z" />
<glyph unicode="&#xee;" horiz-adv-x="634" d="M4 123q0 39 27 133l106 379q27 94 27 131q0 57 -103 55l-2 51q197 18 398 62l-185 -680q-16 -59 -16 -74q0 -51 35 -51q59 0 139 139l41 -26q-139 -266 -330 -267q-66 0 -101.5 41t-35.5 107zM23 1053l286 288h148l164 -288h-84l-183 159l-248 -159h-83z" />
<glyph unicode="&#xef;" horiz-adv-x="634" d="M-6 1161q0 18 4 37q27 133 149 133q125 0 125 -135q0 -63 -51.5 -105t-114.5 -42q-113 0 -112 112zM0 123q0 39 27 133l106 379q27 94 27 131q0 57 -103 55l-2 51q197 18 398 62l-185 -680q-16 -59 -16 -74q0 -51 35 -51q59 0 139 139l41 -26q-139 -266 -330 -267 q-63 0 -100 41t-37 107zM457 1161q0 18 4 37q25 133 147 133q125 0 125 -135q0 -63 -51.5 -105t-114.5 -42q-111 0 -110 112z" />
<glyph unicode="&#xf0;" horiz-adv-x="1009" d="M90 344q0 61 12 129q49 223 207 360.5t355 137.5q34 0 73 -4q-18 74 -67 155l-359 -159l-14 73l330 150q-80 131 -146 215l51 45q123 -76 259 -186l339 149l21 -70l-297 -135q203 -201 203 -479q0 -96 -23 -203q-55 -252 -213.5 -400.5t-365.5 -148.5 q-168 0 -266.5 100.5t-98.5 270.5zM358 180q0 -141 115 -141q96 0 154 106q47 88 96 328q45 205 45 295q0 143 -109 143q-102 0 -157 -104q-48 -86 -99 -332q-45 -209 -45 -295z" />
<glyph unicode="&#xf1;" horiz-adv-x="1167" d="M0 0l170 635q27 100 27 131q0 57 -103 55l-2 51q96 10 404 62l-105 -354q209 354 420 354q72 0 112 -44t40 -116t-68 -282q-47 -131 -92 -263q-14 -43 -15 -59q0 -39 37 -39q35 0 133 141l43 -30q-78 -123 -129 -174q-90 -92 -188 -93q-137 0 -137 156q0 76 63 272 q47 133 92 267q20 63 21 75q0 41 -41 41q-150 0 -291 -323q-86 -197 -151 -463h-240zM262 1055q86 246 264 245q37 0 117 -45t115 -45q63 0 110 86h66q-86 -246 -264 -245q-37 0 -117 46t-117 46q-59 0 -108 -88h-66z" />
<glyph unicode="&#xf2;" horiz-adv-x="1009" d="M0 299q0 223 164 424q174 213 391 213q141 0 236.5 -89.5t95.5 -228.5q0 -233 -160 -432q-170 -213 -399 -213q-143 0 -235.5 91.5t-92.5 234.5zM238 182q0 -141 100 -141q129 0 229 281q82 231 82 395q0 152 -88 151q-115 0 -184 -131q-27 -53 -80 -233 q-59 -203 -59 -322zM268 1239q0 45 32 77t77 32q37 0 57 -17q27 -23 76 -104l102 -176h-90l-176 98q-78 43 -78 90z" />
<glyph unicode="&#xf3;" horiz-adv-x="1009" d="M0 299q0 223 164 424q174 213 391 213q141 0 236.5 -89.5t95.5 -228.5q0 -233 -160 -432q-170 -213 -399 -213q-143 0 -235.5 91.5t-92.5 234.5zM238 182q0 -141 100 -141q129 0 229 281q82 231 82 395q0 152 -88 151q-115 0 -184 -131q-27 -53 -80 -233 q-59 -203 -59 -322zM532 1055h91l176 98q76 43 75 92q0 45 -31.5 76t-76.5 31q-37 0 -55 -15q-29 -23 -76 -106z" />
<glyph unicode="&#xf4;" horiz-adv-x="1009" d="M0 299q0 223 164 424q174 213 391 213q141 0 236.5 -89.5t95.5 -228.5q0 -233 -160 -432q-170 -213 -399 -213q-143 0 -235.5 91.5t-92.5 234.5zM238 182q0 -141 100 -141q129 0 229 281q82 231 82 395q0 152 -88 151q-115 0 -184 -131q-27 -53 -80 -233 q-59 -203 -59 -322zM270 1055l287 288h148l163 -288h-84l-182 159l-248 -159h-84z" />
<glyph unicode="&#xf5;" horiz-adv-x="1009" d="M0 299q0 223 164 424q174 213 391 213q141 0 236.5 -89.5t95.5 -228.5q0 -233 -160 -432q-170 -213 -399 -213q-143 0 -235.5 91.5t-92.5 234.5zM238 182q0 -141 100 -141q129 0 229 281q82 231 82 395q0 152 -88 151q-115 0 -184 -131q-27 -53 -80 -233 q-59 -203 -59 -322zM276 1057q86 246 265 246q37 0 116.5 -45.5t114.5 -45.5q63 0 111 86h65q-86 -246 -264 -245q-37 0 -117 46t-116 46q-59 0 -109 -88h-66z" />
<glyph unicode="&#xf6;" horiz-adv-x="1009" d="M0 299q0 223 164 424q174 213 391 213q141 0 236.5 -89.5t95.5 -228.5q0 -233 -160 -432q-170 -213 -399 -213q-143 0 -235.5 91.5t-92.5 234.5zM238 182q0 -141 100 -141q129 0 229 281q82 231 82 395q0 152 -88 151q-115 0 -184 -131q-27 -53 -80 -233 q-59 -203 -59 -322zM248 1167q0 16 4 35q25 135 147 135q125 0 125 -135q0 -66 -51.5 -106.5t-114.5 -40.5q-111 0 -110 112zM709 1167q0 16 4 35q27 135 149 135q123 0 123 -135q0 -66 -51.5 -106.5t-114.5 -40.5q-111 0 -110 112z" />
<glyph unicode="&#xf7;" horiz-adv-x="890" d="M166 397l78 232h741l-78 -232h-741zM342 98q0 20 6 41q31 150 180 150q150 0 150 -152q0 -72 -61.5 -118t-139.5 -46q-135 0 -135 125zM518 866q0 18 4 41q31 150 180 150q150 0 150 -152q0 -72 -61.5 -118t-139.5 -46q-133 0 -133 125z" />
<glyph unicode="&#xf8;" horiz-adv-x="1009" d="M0 299q0 223 164 424q174 213 391 213q141 0 236.5 -89.5t95.5 -228.5q0 -233 -160 -432q-170 -213 -399 -213q-143 0 -235.5 91.5t-92.5 234.5zM154 -55l534 1005h74l-535 -1005h-73zM238 182q0 -141 100 -141q129 0 229 281q82 231 82 395q0 152 -88 151 q-115 0 -184 -131q-27 -53 -80 -233q-59 -203 -59 -322z" />
<glyph unicode="&#xf9;" horiz-adv-x="1140" d="M0 123q0 76 47 254q39 129 76 258q29 102 29 131q0 57 -105 55l-2 51q100 10 406 62l-197 -698q-12 -41 -12 -70q0 -45 30 -45q160 0 301 319q84 193 148 465h244l-185 -676q-14 -53 -14 -61q0 -37 35 -37q33 0 76 57q29 41 57 84l43 -30q-78 -123 -131 -176 q-90 -90 -191 -91q-55 0 -94 45.5t-39 102.5q0 29 37 184q-201 -334 -409 -334q-68 0 -109 41t-41 109zM258 1237q0 45 32 77t77 32q37 0 57 -17q27 -23 76 -104l100 -176h-90l-174 98q-78 43 -78 90z" />
<glyph unicode="&#xfa;" horiz-adv-x="1140" d="M0 123q0 76 47 254q39 129 76 258q29 102 29 131q0 57 -105 55l-2 51q100 10 406 62l-197 -698q-12 -41 -12 -70q0 -45 30 -45q160 0 301 319q84 193 148 465h244l-185 -676q-14 -53 -14 -61q0 -37 35 -37q33 0 76 57q29 41 57 84l43 -30q-78 -123 -131 -176 q-90 -90 -191 -91q-55 0 -94 45.5t-39 102.5q0 29 37 184q-201 -334 -409 -334q-68 0 -109 41t-41 109zM506 1049h90l176 98q76 43 76 92q0 43 -32 75t-77 32q-37 0 -55 -15q-29 -23 -76 -106z" />
<glyph unicode="&#xfb;" horiz-adv-x="1140" d="M0 123q0 76 47 254q39 129 76 258q29 102 29 131q0 57 -105 55l-2 51q100 10 406 62l-197 -698q-12 -41 -12 -70q0 -45 30 -45q160 0 301 319q84 193 148 465h244l-185 -676q-14 -53 -14 -61q0 -37 35 -37q33 0 76 57q29 41 57 84l43 -30q-78 -123 -131 -176 q-90 -90 -191 -91q-55 0 -94 45.5t-39 102.5q0 29 37 184q-201 -334 -409 -334q-68 0 -109 41t-41 109zM276 1053l287 288h148l163 -288h-83l-181 159l-250 -159h-84z" />
<glyph unicode="&#xfc;" horiz-adv-x="1140" d="M0 123q0 76 47 254q39 129 76 258q29 102 29 131q0 57 -105 55l-2 51q100 10 406 62l-197 -698q-12 -41 -12 -70q0 -45 30 -45q160 0 301 319q84 193 148 465h244l-185 -676q-14 -53 -14 -61q0 -37 35 -37q33 0 76 57q29 41 57 84l43 -30q-78 -123 -131 -176 q-90 -90 -191 -91q-55 0 -94 45.5t-39 102.5q0 29 37 184q-201 -334 -409 -334q-68 0 -109 41t-41 109zM221 1161q0 16 4 35q25 135 148 135q125 0 125 -137q0 -63 -51.5 -104t-114.5 -41q-111 0 -111 112zM682 1161q0 16 4 35q27 135 150 135t122 -137q0 -63 -51 -104 t-114 -41q-111 0 -111 112z" />
<glyph unicode="&#xfd;" horiz-adv-x="864" d="M-215 -287q0 47 34 83t81 36q39 0 98 -37t84 -37q57 0 122.5 86t65.5 144q0 104 -51 364q-45 238 -84 367q-20 68 -43 90q-29 25 -94 22v52q41 4 137 26q88 23 137 23h13q6 -2 10 -2q47 -25 106 -324q33 -188 66 -377q174 319 174 408q0 35 -57.5 86t-57.5 90q0 51 36 88 t87 37q49 0 88 -32t39 -81q0 -158 -141 -456q-143 -307 -326 -527q-211 -250 -372 -250q-63 0 -105 29q-47 33 -47 92zM383 1051h90l176 98q78 45 78 92q0 45 -31.5 76t-77.5 31q-37 0 -57 -15q-29 -23 -76 -106z" />
<glyph unicode="&#xfe;" horiz-adv-x="1118" d="M-186 -408l10 46q102 0 133 147l293 1372q14 70 14 90q0 61 -80 62l9 45h366l-121 -574q127 168 297 168q139 0 209 -102q59 -88 60 -232q0 -72 -15 -145q-41 -193 -158 -330q-135 -164 -315 -164q-150 0 -209 123l-57 -264q-14 -66 -14 -98q0 -94 122 -94l-10 -50h-534z M330 207q39 -121 121 -121q94 0 174 154q55 106 82 229q18 82 18 162q0 194 -113 194q-88 0 -178 -127z" />
<glyph unicode="&#xff;" horiz-adv-x="864" d="M-215 -287q0 47 34 83t81 36q39 0 98 -37t84 -37q57 0 122.5 86t65.5 144q0 104 -51 364q-45 238 -84 367q-20 68 -43 90q-29 25 -94 22v52q41 4 137 26q88 23 137 23h13q6 -2 10 -2q47 -25 106 -324q33 -188 66 -377q174 319 174 408q0 35 -57.5 86t-57.5 90q0 51 36 88 t87 37q49 0 88 -32t39 -81q0 -158 -141 -456q-143 -307 -326 -527q-211 -250 -372 -250q-63 0 -105 29q-47 33 -47 92zM135 1163q0 18 4 37q27 135 150 135t123 -137q0 -63 -51.5 -104t-114.5 -41q-111 0 -111 110zM596 1163q0 18 4 37q27 135 150 135t122 -137 q0 -63 -49.5 -104t-115.5 -41q-111 0 -111 110z" />
<glyph unicode="&#x152;" horiz-adv-x="2236" d="M125 500q0 84 18 174q66 309 302.5 512t543.5 203q119 0 215 -33h1098l-86 -404h-45q2 27 2 49q0 158 -98 224q-86 57 -271 57q-98 0 -127 -14q-43 -23 -61 -113l-90 -426q315 0 377 297h47l-144 -676h-51q12 55 12 103q0 209 -256 209l-94 -443q-8 -33 -8 -57 q0 -80 82 -80q217 0 367 72q168 82 284 272h56l-173 -426h-1120q-111 -31 -225 -31q-260 0 -407.5 146.5t-147.5 384.5zM457 442q0 -410 254 -409q186 0 327 231q107 172 154 389q27 125 27 254q0 412 -258 412q-184 0 -328 -234q-104 -172 -150 -389q-27 -125 -26 -254z " />
<glyph unicode="&#x153;" horiz-adv-x="1523" d="M0 299q0 221 164 424q174 213 391 213q141 0 236.5 -89.5t95.5 -228.5q0 -233 -160 -434q-172 -211 -399 -211q-143 0 -235.5 91.5t-92.5 234.5zM238 182q0 -141 100 -141q129 0 229 281q82 231 82 395q0 152 -88 151q-115 0 -184 -131q-27 -53 -80 -233 q-59 -203 -59 -322zM602 291q0 227 164 428q172 211 395 211q88 0 154.5 -49.5t66.5 -135.5q0 -270 -514 -370q-12 -45 -12 -113q0 -63 35 -109.5t98 -46.5q115 0 230 183l57 -39q-133 -276 -367 -277q-139 0 -223 89.5t-84 228.5zM883 442q129 27 225 117q104 100 104 225 q0 80 -63 80q-98 0 -180 -168q-55 -113 -86 -254z" />
<glyph unicode="&#x178;" horiz-adv-x="1472" d="M276 1305l13 51h655l-10 -51q-156 0 -170 -64q-6 -31 8 -78l150 -493l340 417q72 88 71 142q0 76 -137 76l10 51h430l-10 -51q-84 0 -201 -142l-458 -561l-78 -364q-10 -47 -10 -80q0 -106 147 -107l-12 -51h-674l10 51q100 0 147.5 43t69.5 144l62 294l-209 617 q-47 143 -144 156zM614 1567q0 16 4 35q25 135 148 135q125 0 125 -135q0 -66 -51.5 -107t-114.5 -41q-111 0 -111 113zM1075 1567q0 16 4 35q27 135 150 135t123 -135q0 -66 -51.5 -107t-114.5 -41q-111 0 -111 113z" />
<glyph unicode="&#x2c6;" horiz-adv-x="829" d="M217 999l287 289h147l164 -289h-84l-182 160l-248 -160h-84z" />
<glyph unicode="&#x2dc;" horiz-adv-x="722" d="M236 1110q86 246 264 246q35 0 115.5 -45t115.5 -45q63 0 111 86h65q-86 -246 -264 -246q-37 0 -117 46t-116 46q-59 0 -109 -88h-65z" />
<glyph unicode="&#x2000;" horiz-adv-x="874" />
<glyph unicode="&#x2001;" horiz-adv-x="1749" />
<glyph unicode="&#x2002;" horiz-adv-x="874" />
<glyph unicode="&#x2003;" horiz-adv-x="1749" />
<glyph unicode="&#x2004;" horiz-adv-x="583" />
<glyph unicode="&#x2005;" horiz-adv-x="437" />
<glyph unicode="&#x2006;" horiz-adv-x="291" />
<glyph unicode="&#x2007;" horiz-adv-x="291" />
<glyph unicode="&#x2008;" horiz-adv-x="218" />
<glyph unicode="&#x2009;" horiz-adv-x="349" />
<glyph unicode="&#x200a;" horiz-adv-x="97" />
<glyph unicode="&#x2010;" horiz-adv-x="585" d="M72 342l51 238h481l-51 -238h-481z" />
<glyph unicode="&#x2011;" horiz-adv-x="585" d="M72 342l51 238h481l-51 -238h-481z" />
<glyph unicode="&#x2012;" horiz-adv-x="585" d="M72 342l51 238h481l-51 -238h-481z" />
<glyph unicode="&#x2013;" horiz-adv-x="935" d="M117 354l86 228h811l-86 -228h-811z" />
<glyph unicode="&#x2014;" horiz-adv-x="1753" d="M242 356l170 226h1611l-168 -226h-1613z" />
<glyph unicode="&#x2018;" horiz-adv-x="462" d="M-16 887q0 30 6 59q49 231 418 443l18 -52q-246 -141 -274 -272q-4 -23 43 -31q74 -16 92 -24q51 -27 51 -86q0 -20 -4 -41q-16 -70 -72.5 -123t-124.5 -53q-74 0 -117 55q-37 49 -36 125z" />
<glyph unicode="&#x2019;" horiz-adv-x="450" d="M-59 756q246 141 274 272q4 23 -43 31q-74 14 -92 24q-51 27 -51 86q0 18 6 41q14 70 70.5 123t123.5 53q74 0 117 -55q37 -49 37 -125q0 -30 -6 -59q-49 -231 -418 -442z" />
<glyph unicode="&#x201a;" horiz-adv-x="479" d="M-68 -330q248 141 277 273q4 23 -43 32q-74 14 -92 23q-51 27 -51 86q0 20 4 43q14 68 71.5 121t124.5 53q74 0 114 -52t40 -128q0 -31 -6 -60q-49 -231 -418 -442z" />
<glyph unicode="&#x201c;" horiz-adv-x="872" d="M-23 889q1 28 7 59q49 229 417 443l21 -52q-248 -141 -275 -272q-6 -23 43 -33q72 -14 93 -24q49 -25 49 -86q0 -18 -4 -41q-14 -70 -70.5 -122t-124.5 -52q-76 0 -116 52t-40 128zM403 885q1 30 7 59q49 231 417 442l19 -51q-246 -141 -275 -272q-4 -23 43 -33 q74 -14 93 -22q51 -27 51 -86q0 -20 -4 -43q-16 -68 -72.5 -121t-124.5 -53q-74 0 -117 55q-37 49 -37 125z" />
<glyph unicode="&#x201d;" horiz-adv-x="899" d="M-66 758q248 141 275 272q6 23 -41 33q-74 14 -92 22q-51 27 -51 86q0 20 4 43q14 68 71.5 121.5t124.5 53.5q74 0 114 -52.5t40 -128.5q0 -30 -6 -59q-49 -231 -418 -442zM360 754q246 141 275 272q4 23 -43 33q-74 14 -92 24q-51 25 -51 86q0 18 4 41q16 70 72.5 122 t123.5 52q74 0 117 -53q37 -49 37 -127q0 -28 -6 -59q-49 -229 -418 -443z" />
<glyph unicode="&#x201e;" horiz-adv-x="833" d="M-68 -330q248 141 277 273q4 23 -43 32q-74 14 -92 23q-51 27 -51 86q0 20 4 43q14 68 71.5 121t124.5 53q74 0 114 -52t40 -128q0 -31 -6 -60q-49 -231 -418 -442zM328 -330q248 141 274 273q6 23 -43 32q-72 14 -92 23q-49 27 -49 86q0 20 4 43q14 68 70.5 121 t123.5 53q76 0 116 -52t40 -128q0 -31 -6 -60q-49 -231 -418 -442z" />
<glyph unicode="&#x2022;" horiz-adv-x="1161" d="M6 621q0 211 146.5 357t355.5 146t355.5 -146t146.5 -357q0 -209 -144.5 -359.5t-351.5 -150.5q-211 0 -359.5 150.5t-148.5 359.5z" />
<glyph unicode="&#x2026;" horiz-adv-x="1310" d="M25 100q0 20 6 41q31 150 180 150q150 0 149 -152q0 -72 -61 -118t-139 -46q-135 0 -135 125zM434 100q0 20 6 41q31 150 181 150t149 -152q0 -72 -61.5 -118t-139.5 -46q-135 0 -135 125zM844 100q0 20 6 41q31 150 180 150q150 0 150 -152q0 -72 -61.5 -118t-139.5 -46 q-135 0 -135 125z" />
<glyph unicode="&#x202f;" horiz-adv-x="349" />
<glyph unicode="&#x2039;" horiz-adv-x="638" d="M98 461q145 104 293 209q236 166 260 170q12 2 21.5 -6.5t5.5 -22.5q-25 -76 -307 -350q169 -260 157 -352q-2 -27 -26 -27q-31 0 -56 27l-161 170q-61 61 -187 182z" />
<glyph unicode="&#x203a;" horiz-adv-x="624" d="M170 109q-2 -27 20 -27q31 0 62 27l199 170q74 61 225 182q-125 104 -250 209q-201 166 -223 170q-12 2 -23.5 -6.5t-9.5 -22.5q6 -59 96 -180q16 -23 137 -170q-96 -111 -139 -168q-90 -123 -94 -184z" />
<glyph unicode="&#x205f;" horiz-adv-x="437" />
<glyph unicode="&#x2122;" horiz-adv-x="1689" d="M100 1184l43 205h596l-43 -207h-26q4 18 4 37q0 137 -162 137l-111 -527q-4 -20 -4 -36q0 -57 80 -58l-4 -24h-352l4 24q96 0 117 94l110 527q-184 0 -225 -172h-27zM653 711l6 24q90 0 111 92l94 451q4 18 4 33q0 53 -73 53l4 25h254l96 -467l295 467h252l-4 -25 q-86 0 -105 -92l-92 -434q-10 -43 -10 -58q0 -45 69 -45l-4 -24h-329l4 24q55 0 76.5 20.5t33.5 78.5l99 471l-373 -594h-27l-123 577l-98 -461q-4 -20 -4 -34q0 -57 80 -58l-4 -24h-232z" />
<glyph unicode="&#xe000;" horiz-adv-x="942" d="M0 0v942h942v-942h-942z" />
</font>
</defs>
</svg>
